<svg width="9" height="9" viewBox="0 0 9 9" fill="none" xmlns="http://www.w3.org/2000/svg">
<path d="M4.41176 8.82353C1.97892 8.82353 0 6.84439 0 4.41176C0 1.97914 1.97892 0 4.41176 0C6.84461 0 8.82353 1.97914 8.82353 4.41176C8.82353 6.84439 6.84461 8.82353 4.41176 8.82353ZM4.41176 0.640221C2.33211 0.640221 0.640221 2.33211 0.640221 4.41176C0.640221 6.49142 2.33211 8.18331 4.41176 8.18331C6.49142 8.18331 8.18331 6.49142 8.18331 4.41176C8.18331 2.33211 6.49142 0.640221 4.41176 0.640221Z" fill="#E2E2E2"/>
<path d="M6.24549 6.61562C6.20344 6.61564 6.16181 6.60737 6.12296 6.5913C6.08411 6.57522 6.0488 6.55165 6.01906 6.52193L2.35188 2.85453C2.3213 2.825 2.29692 2.78968 2.28014 2.75062C2.26336 2.71157 2.25453 2.66957 2.25416 2.62706C2.25379 2.58456 2.26189 2.54241 2.27799 2.50306C2.29408 2.46372 2.31785 2.42798 2.34791 2.39793C2.37796 2.36787 2.41371 2.3441 2.45305 2.32801C2.49239 2.31191 2.53454 2.30381 2.57704 2.30418C2.61955 2.30455 2.66155 2.31338 2.70061 2.33016C2.73966 2.34693 2.77498 2.37132 2.80451 2.40189L6.47191 6.0693C6.51664 6.11408 6.54708 6.17111 6.55941 6.23319C6.57173 6.29526 6.56537 6.3596 6.54114 6.41807C6.51691 6.47653 6.47589 6.52651 6.42326 6.56167C6.37064 6.59683 6.30878 6.6156 6.24549 6.61562Z" fill="#E2E2E2"/>
<path d="M2.57789 6.61562C2.51462 6.61556 2.45278 6.59676 2.40019 6.56158C2.3476 6.5264 2.30661 6.47643 2.28241 6.41797C2.2582 6.35951 2.25186 6.29519 2.26419 6.23313C2.27652 6.17108 2.30696 6.11406 2.35167 6.0693L6.01886 2.40189C6.07889 2.34184 6.16031 2.30809 6.24521 2.30807C6.33012 2.30805 6.41155 2.34176 6.4716 2.40179C6.53166 2.46181 6.5654 2.54323 6.56542 2.62814C6.56544 2.71304 6.53173 2.79448 6.47171 2.85453L2.80431 6.52193C2.77457 6.55165 2.73927 6.57522 2.70042 6.5913C2.66157 6.60737 2.61993 6.61564 2.57789 6.61562Z" fill="#E2E2E2"/>
</svg>
