<svg width="9" height="9" viewBox="0 0 9 9" fill="none" xmlns="http://www.w3.org/2000/svg">
<path d="M4.41176 8.82353C1.97892 8.82353 0 6.84439 0 4.41176C0 1.97914 1.97892 0 4.41176 0C6.84461 0 8.82353 1.97914 8.82353 4.41176C8.82353 6.84439 6.84461 8.82353 4.41176 8.82353ZM4.41176 0.640221C2.33211 0.640221 0.640221 2.33211 0.640221 4.41176C0.640221 6.49142 2.33211 8.18331 4.41176 8.18331C6.49142 8.18331 8.18331 6.49142 8.18331 4.41176C8.18331 2.33211 6.49142 0.640221 4.41176 0.640221Z" fill="#E2E2E2"/>
<path d="M6.24524 6.61562C6.2032 6.61564 6.16156 6.60737 6.12271 6.5913C6.08386 6.57522 6.04856 6.55165 6.01882 6.52193L2.35163 2.85453C2.32106 2.825 2.29667 2.78968 2.27989 2.75062C2.26312 2.71157 2.25429 2.66957 2.25392 2.62706C2.25355 2.58456 2.26165 2.54241 2.27774 2.50306C2.29384 2.46372 2.31761 2.42798 2.34766 2.39793C2.37772 2.36787 2.41346 2.3441 2.4528 2.32801C2.49214 2.31191 2.53429 2.30381 2.5768 2.30418C2.6193 2.30455 2.66131 2.31338 2.70036 2.33016C2.73942 2.34693 2.77474 2.37132 2.80427 2.40189L6.47167 6.0693C6.51639 6.11408 6.54684 6.17111 6.55916 6.23319C6.57148 6.29526 6.56513 6.3596 6.54089 6.41807C6.51666 6.47653 6.47564 6.52651 6.42302 6.56167C6.3704 6.59683 6.30853 6.6156 6.24524 6.61562Z" fill="#E2E2E2"/>
<path d="M2.57813 6.61562C2.51486 6.61556 2.45302 6.59676 2.40043 6.56158C2.34784 6.5264 2.30686 6.47643 2.28265 6.41797C2.25845 6.35951 2.25211 6.29519 2.26444 6.23313C2.27676 6.17108 2.30721 6.11406 2.35192 6.0693L6.01911 2.40189C6.07913 2.34184 6.16055 2.30809 6.24546 2.30807C6.33036 2.30805 6.4118 2.34176 6.47185 2.40179C6.5319 2.46181 6.56565 2.54323 6.56567 2.62814C6.56569 2.71304 6.53198 2.79448 6.47196 2.85453L2.80455 6.52193C2.77482 6.55165 2.73951 6.57522 2.70066 6.5913C2.66181 6.60737 2.62017 6.61564 2.57813 6.61562Z" fill="#E2E2E2"/>
</svg>
