<svg width="9" height="9" viewBox="0 0 9 9" fill="none" xmlns="http://www.w3.org/2000/svg">
<path d="M4.41176 8.82353C1.97892 8.82353 0 6.84439 0 4.41176C0 1.97914 1.97892 0 4.41176 0C6.84461 0 8.82353 1.97914 8.82353 4.41176C8.82353 6.84439 6.84461 8.82353 4.41176 8.82353ZM4.41176 0.640221C2.33211 0.640221 0.640221 2.33211 0.640221 4.41176C0.640221 6.49142 2.33211 8.18331 4.41176 8.18331C6.49142 8.18331 8.18331 6.49142 8.18331 4.41176C8.18331 2.33211 6.49142 0.640221 4.41176 0.640221Z" fill="#E2E2E2"/>
<path d="M6.24549 6.61565C6.20344 6.61567 6.16181 6.6074 6.12296 6.59133C6.08411 6.57525 6.0488 6.55168 6.01906 6.52196L2.35188 2.85456C2.3213 2.82503 2.29692 2.78971 2.28014 2.75066C2.26336 2.7116 2.25453 2.6696 2.25416 2.62709C2.25379 2.58459 2.26189 2.54244 2.27799 2.5031C2.29408 2.46375 2.31785 2.42801 2.34791 2.39796C2.37796 2.3679 2.41371 2.34413 2.45305 2.32804C2.49239 2.31194 2.53454 2.30384 2.57704 2.30421C2.61955 2.30458 2.66155 2.31341 2.70061 2.33019C2.73966 2.34696 2.77498 2.37135 2.80451 2.40193L6.47191 6.06933C6.51664 6.11411 6.54708 6.17114 6.55941 6.23322C6.57173 6.29529 6.56537 6.35963 6.54114 6.4181C6.51691 6.47657 6.47589 6.52654 6.42326 6.5617C6.37064 6.59686 6.30878 6.61563 6.24549 6.61565Z" fill="#E2E2E2"/>
<path d="M2.57789 6.61565C2.51462 6.61559 2.45278 6.59679 2.40019 6.56161C2.3476 6.52643 2.30661 6.47646 2.28241 6.418C2.2582 6.35954 2.25186 6.29522 2.26419 6.23316C2.27652 6.17111 2.30696 6.11409 2.35167 6.06933L6.01886 2.40193C6.07889 2.34187 6.16031 2.30813 6.24521 2.30811C6.33012 2.30809 6.41155 2.34179 6.4716 2.40182C6.53166 2.46184 6.5654 2.54326 6.56542 2.62817C6.56544 2.71307 6.53173 2.79451 6.47171 2.85456L2.80431 6.52196C2.77457 6.55168 2.73927 6.57525 2.70042 6.59133C2.66157 6.6074 2.61993 6.61567 2.57789 6.61565Z" fill="#E2E2E2"/>
</svg>
