<svg width="9" height="9" viewBox="0 0 9 9" fill="none" xmlns="http://www.w3.org/2000/svg">
<path d="M4.41176 8.82353C1.97892 8.82353 0 6.84439 0 4.41176C0 1.97914 1.97892 0 4.41176 0C6.84461 0 8.82353 1.97914 8.82353 4.41176C8.82353 6.84439 6.84461 8.82353 4.41176 8.82353ZM4.41176 0.640221C2.33211 0.640221 0.640221 2.33211 0.640221 4.41176C0.640221 6.49142 2.33211 8.18331 4.41176 8.18331C6.49142 8.18331 8.18331 6.49142 8.18331 4.41176C8.18331 2.33211 6.49142 0.640221 4.41176 0.640221Z" fill="#E2E2E2"/>
<path d="M6.24524 6.61565C6.2032 6.61567 6.16156 6.6074 6.12271 6.59133C6.08386 6.57525 6.04856 6.55168 6.01882 6.52196L2.35163 2.85456C2.32106 2.82503 2.29667 2.78971 2.27989 2.75066C2.26312 2.7116 2.25429 2.6696 2.25392 2.62709C2.25355 2.58459 2.26165 2.54244 2.27774 2.5031C2.29384 2.46375 2.31761 2.42801 2.34766 2.39796C2.37772 2.3679 2.41346 2.34413 2.4528 2.32804C2.49214 2.31194 2.53429 2.30384 2.5768 2.30421C2.6193 2.30458 2.66131 2.31341 2.70036 2.33019C2.73942 2.34696 2.77474 2.37135 2.80427 2.40193L6.47167 6.06933C6.51639 6.11411 6.54684 6.17114 6.55916 6.23322C6.57148 6.29529 6.56513 6.35963 6.54089 6.4181C6.51666 6.47657 6.47564 6.52654 6.42302 6.5617C6.3704 6.59686 6.30853 6.61563 6.24524 6.61565Z" fill="#E2E2E2"/>
<path d="M2.57764 6.61565C2.51437 6.61559 2.45254 6.59679 2.39995 6.56161C2.34735 6.52643 2.30637 6.47646 2.28216 6.418C2.25796 6.35954 2.25162 6.29522 2.26395 6.23316C2.27628 6.17111 2.30672 6.11409 2.35143 6.06933L6.01862 2.40193C6.07864 2.34187 6.16006 2.30813 6.24497 2.30811C6.32987 2.30809 6.41131 2.34179 6.47136 2.40182C6.53141 2.46184 6.56516 2.54326 6.56518 2.62817C6.5652 2.71307 6.53149 2.79451 6.47147 2.85456L2.80407 6.52196C2.77433 6.55168 2.73902 6.57525 2.70017 6.59133C2.66132 6.6074 2.61969 6.61567 2.57764 6.61565Z" fill="#E2E2E2"/>
</svg>
