<svg width="18" height="18" viewBox="0 0 18 18" fill="none" xmlns="http://www.w3.org/2000/svg">
<path d="M9 14.625C10.5339 14.625 11.7773 13.3815 11.7773 11.8477C11.7773 10.3138 10.5339 9.07031 9 9.07031C7.46612 9.07031 6.22266 10.3138 6.22266 11.8477C6.22266 13.3815 7.46612 14.625 9 14.625Z" fill="#161616"/>
<path d="M1.69453 13.9676L0 16.0418L2.67891 16.0769L2.30625 15.2754L9.11953 12.1008L8.88399 11.591L2.06719 14.7691L1.69453 13.9676Z" fill="#161616"/>
<path d="M1.98633 13.841L2.45039 13.1976V13.3804L2.00391 12.7582H2.28867L2.59805 13.1906L2.47852 13.1941L2.78437 12.7582H3.05508L2.61211 13.3699V13.1906L3.07969 13.841H2.79141L2.47148 13.3804H2.5875L2.27461 13.841H1.98633Z" fill="#161616"/>
<path d="M16.3059 13.9746L18.0004 16.0488L15.3215 16.084L15.6941 15.2824L8.88086 12.1043L9.11641 11.598L15.9332 14.7761L16.3059 13.9746Z" fill="#161616"/>
<path d="M15.3916 13.841V13.398L15.4479 13.5492L14.9697 12.7546H15.2369L15.6025 13.3628H15.4479L15.8135 12.7546H16.0596L15.585 13.5492L15.6412 13.398V13.841H15.3916Z" fill="#161616"/>
<path d="M10.1633 4.32773L8.99961 1.91602L7.83594 4.32773H8.72188V11.8477H9.28086V4.32773H10.1633Z" fill="#161616"/>
<path d="M7.18945 5.93084V5.76912L7.86094 4.96052L7.89258 5.05193H7.20352V4.84802H8.11406V5.00974L7.44609 5.81834L7.41445 5.72693H8.13867V5.93084H7.18945Z" fill="#161616"/>
</svg>
