<svg width="18" height="18" viewBox="0 0 18 18" fill="none" xmlns="http://www.w3.org/2000/svg">
<path d="M9 14.625C10.5339 14.625 11.7773 13.3815 11.7773 11.8477C11.7773 10.3138 10.5339 9.07031 9 9.07031C7.46612 9.07031 6.22266 10.3138 6.22266 11.8477C6.22266 13.3815 7.46612 14.625 9 14.625Z" fill="#161616"/>
<path d="M1.69453 13.9676L0 16.0418L2.67891 16.077L2.30625 15.2754L9.11953 12.1008L8.88399 11.5911L2.06719 14.7692L1.69453 13.9676Z" fill="#161616"/>
<path d="M1.98633 13.8411L2.45039 13.1978V13.3806L2.00391 12.7583H2.28867L2.59805 13.1907L2.47852 13.1942L2.78437 12.7583H3.05508L2.61211 13.37V13.1907L3.07969 13.8411H2.79141L2.47148 13.3806H2.5875L2.27461 13.8411H1.98633Z" fill="#161616"/>
<path d="M16.3059 13.9747L18.0004 16.0489L15.3215 16.0841L15.6941 15.2825L8.88086 12.1044L9.11641 11.5981L15.9332 14.7763L16.3059 13.9747Z" fill="#161616"/>
<path d="M15.3916 13.8412V13.3982L15.4479 13.5494L14.9697 12.7549H15.2369L15.6025 13.3631H15.4479L15.8135 12.7549H16.0596L15.585 13.5494L15.6412 13.3982V13.8412H15.3916Z" fill="#161616"/>
<path d="M10.1633 4.32773L8.99961 1.91602L7.83594 4.32773H8.72188V11.8477H9.28086V4.32773H10.1633Z" fill="#161616"/>
<path d="M7.18945 5.93096V5.76924L7.86094 4.96064L7.89258 5.05205H7.20352V4.84814H8.11406V5.00986L7.44609 5.81846L7.41445 5.72705H8.13867V5.93096H7.18945Z" fill="#161616"/>
</svg>
