<svg width="15" height="15" viewBox="0 0 15 15" fill="none" xmlns="http://www.w3.org/2000/svg">
<g clip-path="url(#clip0_334_2773)">
<path d="M7.5 4.65817C9.06738 4.65817 10.3418 5.92966 10.3418 7.49997C10.3418 9.07028 9.07031 10.3418 7.5 10.3418C5.92969 10.3418 4.6582 9.07028 4.6582 7.49997C4.6582 5.92966 5.93262 4.65817 7.5 4.65817ZM7.5 5.20602C8.29688 5.20602 9.02637 5.48727 9.59473 5.95895C9.12012 5.31442 8.3584 4.89841 7.5 4.89841C6.6416 4.89841 5.87695 5.31442 5.40527 5.95895C5.97363 5.4902 6.70312 5.20602 7.5 5.20602Z" fill="#161616"/>
<path d="M7.49993 3.41599C7.11907 3.41599 6.73821 3.43356 6.35735 3.46286C5.97649 3.49509 5.59856 3.54489 5.22356 3.60934C5.12981 3.62692 5.03606 3.64157 4.94231 3.66208L4.66106 3.72067C4.56731 3.74118 4.47649 3.76462 4.38274 3.78806L4.31243 3.80563L4.24212 3.82321L4.10442 3.8613C3.73821 3.96677 3.37493 4.08688 3.02044 4.23337C2.66595 4.37985 2.32024 4.54684 1.99212 4.74606C1.66399 4.94528 1.35052 5.1738 1.06927 5.4404C0.996024 5.50485 0.931571 5.57809 0.864188 5.64841C0.829032 5.68356 0.799736 5.72165 0.767509 5.75681L0.673759 5.86813L0.585868 5.98532L0.541923 6.04391C0.527274 6.06442 0.515556 6.08493 0.500908 6.10544L0.421805 6.22849C0.395438 6.2695 0.37493 6.31345 0.351493 6.35739C0.163993 6.70309 0.0614548 7.0986 0.049736 7.49704C0.0468063 7.89548 0.134697 8.29977 0.313408 8.6572C0.336845 8.70114 0.357352 8.74802 0.38079 8.79196L0.456963 8.92087C0.468681 8.94138 0.480399 8.96481 0.495048 8.98532L0.536063 9.04684L0.621025 9.16989C0.650322 9.20798 0.682548 9.24899 0.711844 9.28708C0.744071 9.32516 0.773368 9.36618 0.805594 9.40134C0.870048 9.47458 0.934501 9.55075 1.00774 9.61813C1.28606 9.89938 1.59661 10.1425 1.92474 10.3564C2.25286 10.5703 2.59856 10.7549 2.95599 10.9101C3.31341 11.0683 3.67962 11.2031 4.05169 11.3144C4.42376 11.4258 4.80169 11.5195 5.18255 11.5898C5.56341 11.6601 5.95013 11.7158 6.33392 11.7509C6.72063 11.7832 7.10735 11.8007 7.49407 11.8037C7.88079 11.8007 8.27044 11.7832 8.65423 11.7509C9.04095 11.7158 9.42474 11.6601 9.80559 11.5898C10.1865 11.5195 10.5644 11.4258 10.9365 11.3144C11.3085 11.2031 11.6747 11.0683 12.0322 10.9101C12.3896 10.7519 12.7353 10.5703 13.0634 10.3564C13.4003 10.1455 13.7109 9.90231 13.9892 9.62106C14.0595 9.55368 14.124 9.47751 14.1913 9.40427C14.2265 9.36911 14.2558 9.32809 14.2851 9.29001C14.3144 9.25192 14.3466 9.21091 14.3759 9.17282L14.4609 9.04977L14.5019 8.98825C14.5165 8.96774 14.5283 8.9443 14.54 8.9238L14.6161 8.79489C14.6396 8.75095 14.6601 8.70407 14.6835 8.66013C14.8593 8.3027 14.9501 7.89841 14.9472 7.49997C14.9355 7.10153 14.8329 6.70602 14.6454 6.36032C14.622 6.31638 14.6015 6.27243 14.5751 6.23141L14.496 6.10837C14.4814 6.08786 14.4697 6.06735 14.455 6.04684L14.4111 5.98825L14.3232 5.87106L14.2294 5.75974C14.1972 5.72165 14.1679 5.68356 14.1327 5.65134C14.0654 5.58102 14.0009 5.50778 13.9277 5.44333C13.6464 5.17673 13.3329 4.94821 13.0048 4.74899C12.6767 4.54977 12.331 4.38278 11.9765 4.2363C11.622 4.08981 11.2587 3.9697 10.8925 3.86423L10.7548 3.82614L10.6845 3.80856L10.6142 3.79098C10.5204 3.76755 10.4296 3.74411 10.3359 3.7236L10.0546 3.66501C9.96087 3.6445 9.86712 3.62985 9.77337 3.61227C9.39837 3.54782 9.01751 3.49802 8.63958 3.46579C8.26165 3.43063 7.88079 3.41599 7.49993 3.41599ZM7.49993 3.41599C7.88079 3.41891 8.26165 3.43649 8.64251 3.46872C9.02337 3.50388 9.4013 3.55661 9.77337 3.62692C10.1484 3.69431 10.5175 3.78806 10.8837 3.89645C11.247 4.00485 11.6074 4.13669 11.9531 4.29196C12.3017 4.44431 12.6357 4.62302 12.955 4.83102C13.2714 5.0361 13.5702 5.27048 13.8339 5.54001C13.9013 5.60446 13.9628 5.6777 14.0243 5.74802C14.0566 5.78317 14.0829 5.82126 14.1122 5.85641L14.1972 5.96774L14.2763 6.082L14.3144 6.14059C14.3261 6.1611 14.3378 6.18161 14.3495 6.19919L14.4199 6.31931C14.4433 6.36032 14.4609 6.40134 14.4814 6.44235C14.6484 6.77048 14.7275 7.13669 14.7245 7.49997C14.7128 7.86325 14.6191 8.22067 14.4433 8.54001C14.4228 8.58102 14.4023 8.62204 14.3788 8.66013L14.3056 8.77438C14.2939 8.79489 14.2822 8.81247 14.2675 8.83298L14.2265 8.88864L14.1445 8.99997L14.0566 9.10544C14.0273 9.14059 13.998 9.17575 13.9658 9.20798C13.9013 9.27243 13.8398 9.34274 13.7724 9.40427C13.5058 9.65622 13.204 9.87595 12.8876 10.0693C12.5712 10.2597 12.2343 10.4238 11.8886 10.5674C11.5429 10.7109 11.1884 10.8281 10.831 10.9306C10.4706 11.0332 10.1044 11.1123 9.73528 11.1767C9.36614 11.2412 8.99407 11.2881 8.622 11.3203C8.247 11.3496 7.872 11.3642 7.497 11.3672C7.122 11.3672 6.747 11.3496 6.372 11.3203C5.99993 11.2881 5.62786 11.2412 5.25872 11.1767C5.1679 11.1591 5.07415 11.1445 4.98333 11.124L4.70794 11.0654C4.61712 11.0449 4.5263 11.0215 4.43548 11.0009L4.3681 10.9834L4.30071 10.9658L4.16595 10.9277C3.8056 10.8252 3.4511 10.708 3.1054 10.5644C2.76263 10.4209 2.42571 10.2597 2.10638 10.0664C1.78997 9.87595 1.48821 9.65622 1.22161 9.40134C1.1513 9.33981 1.0927 9.27243 1.02825 9.20505C0.996025 9.17282 0.966727 9.13766 0.93743 9.10251L0.84954 8.99704L0.767509 8.88571L0.726493 8.83005C0.714774 8.81247 0.703055 8.79196 0.688407 8.77145L0.615165 8.6572C0.591727 8.61911 0.571219 8.57809 0.550712 8.53708C0.37786 8.21774 0.284111 7.85739 0.269463 7.49411C0.266533 7.13083 0.345634 6.76462 0.509696 6.43356C0.530204 6.39255 0.547782 6.3486 0.571219 6.31052L0.641532 6.1904C0.653251 6.16989 0.66497 6.14938 0.676689 6.13181L0.714774 6.07321L0.793877 5.95895L0.878837 5.84763C0.908134 5.80954 0.934501 5.77438 0.966727 5.73923C1.02825 5.66891 1.08977 5.5986 1.15716 5.53122C1.42083 5.26462 1.71966 5.03024 2.03606 4.82224C2.35247 4.61716 2.68938 4.43845 3.03802 4.28317C3.38665 4.13083 3.74407 3.99899 4.10735 3.88766C4.47063 3.77927 4.8427 3.68552 5.2177 3.61813C5.5927 3.54782 5.97063 3.49509 6.34856 3.45993C6.73821 3.43356 7.11907 3.41891 7.49993 3.41599Z" fill="#161616"/>
<path d="M3.96345 9.54196C4.15388 9.87302 4.35896 10.1953 4.57576 10.5088C4.79255 10.8222 5.024 11.124 5.27009 11.417C5.33162 11.4902 5.39314 11.5634 5.45759 11.6338L5.64802 11.8476C5.71248 11.9179 5.77986 11.9853 5.84431 12.0556L5.89412 12.1084L5.94392 12.1582L6.04646 12.2578C6.31892 12.5244 6.60603 12.7763 6.91072 13.0107C7.21541 13.2422 7.53181 13.459 7.86873 13.6435C8.20564 13.8281 8.56013 13.9863 8.92927 14.0947C9.02009 14.124 9.11677 14.1445 9.21052 14.1679C9.2574 14.1797 9.30427 14.1884 9.35408 14.1972C9.40095 14.206 9.45076 14.2148 9.49763 14.2236L9.64412 14.2412L9.71736 14.25C9.7408 14.2529 9.76716 14.2529 9.7906 14.2529L9.93709 14.2588C9.98689 14.2588 10.0338 14.2558 10.0836 14.2558C10.4761 14.2441 10.8687 14.1386 11.2203 13.9482C11.566 13.7519 11.8707 13.4736 12.0933 13.1396C12.1197 13.0986 12.149 13.0576 12.1754 13.0136L12.2486 12.8847C12.2603 12.8642 12.275 12.8408 12.2838 12.8203L12.316 12.7529L12.3804 12.6181C12.401 12.5713 12.4185 12.5273 12.4361 12.4804C12.4537 12.4336 12.4742 12.3896 12.4888 12.3427C12.5211 12.249 12.5533 12.1552 12.5767 12.0586C12.6822 11.6777 12.7349 11.2881 12.7554 10.8955C12.776 10.5058 12.7613 10.1133 12.7203 9.72653C12.6793 9.33981 12.6119 8.95602 12.5211 8.57809C12.4332 8.20016 12.3248 7.82516 12.1929 7.46188C12.064 7.09567 11.9176 6.73532 11.7564 6.38376C11.5924 6.0322 11.4136 5.68942 11.2203 5.35251C11.024 5.01852 10.816 4.6904 10.5933 4.37399C10.3707 4.05759 10.1304 3.7529 9.87849 3.457C9.62654 3.1611 9.35701 2.87985 9.07576 2.61325C8.79158 2.34665 8.49275 2.09763 8.17927 1.86618C7.8658 1.63474 7.53181 1.42673 7.18318 1.25095C6.84041 1.06638 6.4742 0.919891 6.09334 0.820282C5.99959 0.793915 5.89998 0.776337 5.8033 0.755829C5.75642 0.74411 5.70662 0.738251 5.65681 0.732391C5.60701 0.726532 5.56013 0.717743 5.51033 0.711884L5.36091 0.700165L5.28767 0.694305C5.26423 0.694305 5.23787 0.694305 5.2115 0.694305H5.06209C5.01228 0.694305 4.96248 0.700165 4.91267 0.703094C4.51423 0.729462 4.12166 0.852509 3.77595 1.05466C3.43611 1.26559 3.14607 1.5527 2.94099 1.88669C2.91462 1.9277 2.88826 1.96872 2.86482 2.01266L2.79744 2.14157C2.78572 2.16208 2.774 2.18552 2.76521 2.20602L2.73591 2.27341L2.67732 2.40817C2.65974 2.45505 2.64509 2.49899 2.62752 2.54587C2.60994 2.59274 2.59236 2.63669 2.58064 2.68356C2.55427 2.77731 2.52205 2.86813 2.50447 2.96481C2.41365 3.34274 2.37263 3.72653 2.36384 4.11032C2.35505 4.49411 2.38435 4.8779 2.43416 5.25583C2.48396 5.63669 2.56013 6.01169 2.65388 6.38083L2.68904 6.51852L2.70662 6.58884L2.72713 6.65622C2.75349 6.74704 2.77986 6.84079 2.80916 6.93161L2.89705 7.20407C2.92634 7.29489 2.9615 7.38278 2.9908 7.4736C3.12263 7.83102 3.26912 8.18259 3.43025 8.52829C3.59431 8.87399 3.77302 9.21091 3.96345 9.54196ZM3.96345 9.54196C3.77595 9.21091 3.60017 8.87106 3.43611 8.52829C3.27498 8.18259 3.13435 7.82809 3.00545 7.47067C2.87654 7.11325 2.77107 6.74411 2.68318 6.37497C2.59529 6.00583 2.53084 5.6279 2.48982 5.24997C2.4488 4.87204 2.43709 4.49118 2.45466 4.11325C2.47517 3.73532 2.52791 3.36032 2.62752 2.99704C2.65095 2.90622 2.68318 2.81833 2.71248 2.72751C2.72713 2.68356 2.7447 2.63962 2.76228 2.59567L2.81502 2.46677L2.87654 2.34079L2.90584 2.27927C2.91755 2.25876 2.92927 2.23825 2.94099 2.21774L3.0113 2.09763C3.03474 2.05954 3.06404 2.02145 3.08748 1.98337C3.29255 1.67575 3.57088 1.4238 3.88728 1.24509C4.20662 1.07516 4.56404 0.975555 4.92732 0.966766C4.9742 0.966766 5.01814 0.963837 5.06209 0.963837L5.19978 0.969696C5.22322 0.969696 5.24666 0.969696 5.26716 0.972626L5.33455 0.981415L5.46931 0.996063L5.60408 1.0195C5.64802 1.02829 5.6949 1.03415 5.73884 1.04587C5.82673 1.06931 5.91755 1.08688 6.00545 1.11618C6.35701 1.22165 6.69978 1.37106 7.02205 1.54977C7.34724 1.72849 7.65486 1.93942 7.95076 2.16501C8.24666 2.39352 8.52498 2.63962 8.79451 2.90036C9.06111 3.1611 9.31599 3.43649 9.55623 3.7236C9.79646 4.01071 10.022 4.30954 10.2388 4.61716C10.4527 4.92477 10.6519 5.24118 10.8424 5.56638C11.0299 5.89157 11.2027 6.22263 11.3638 6.56247C11.522 6.90231 11.6685 7.24802 11.7974 7.59958C11.8297 7.68747 11.8619 7.77536 11.8912 7.86325L11.9791 8.12985C12.0054 8.22067 12.0318 8.30856 12.0582 8.39938L12.0787 8.46677L12.0963 8.53415L12.1314 8.66891C12.2222 9.0322 12.2984 9.39841 12.3453 9.76755C12.3922 10.1367 12.4215 10.5088 12.4127 10.8808C12.4068 11.2529 12.3658 11.622 12.2808 11.9795C12.2633 12.0703 12.234 12.1582 12.2076 12.2461C12.1959 12.29 12.1783 12.334 12.1636 12.375L12.1168 12.5039L12.0611 12.6299L12.0347 12.6914C12.026 12.7119 12.0142 12.7324 12.0025 12.7529L11.9381 12.873C11.9146 12.914 11.8912 12.9492 11.8677 12.9902C11.6773 13.3007 11.4136 13.5615 11.106 13.7519C10.7926 13.9365 10.4351 14.0507 10.066 14.0742C10.0191 14.0771 9.97517 14.083 9.9283 14.083H9.7906C9.76716 14.083 9.74373 14.083 9.72029 14.083L9.64998 14.0771L9.50935 14.0683L9.37166 14.0508C9.32478 14.0449 9.27791 14.039 9.23396 14.0273C9.14314 14.0068 9.04939 13.9922 8.95857 13.9658C8.59529 13.872 8.24373 13.7285 7.90681 13.5586C7.5699 13.3857 7.24763 13.1865 6.94002 12.9609C6.6324 12.7353 6.33943 12.4922 6.06404 12.2314C5.78572 11.9707 5.52205 11.6953 5.27595 11.4052C5.02986 11.1152 4.79255 10.8164 4.57283 10.5029C4.35896 10.1924 4.15388 9.87009 3.96345 9.54196Z" fill="#161616"/>
<path d="M11.0363 9.54196C10.8429 9.87009 10.6379 10.1924 10.4211 10.5058C10.2013 10.8164 9.96697 11.1181 9.71794 11.4082C9.47185 11.6982 9.20818 11.9736 8.92986 12.2343C8.65154 12.4951 8.3615 12.7383 8.05388 12.9638C7.74626 13.1894 7.424 13.3886 7.08708 13.5615C6.75017 13.7343 6.39861 13.875 6.03533 13.9687C5.94451 13.9951 5.85369 14.0127 5.75994 14.0302C5.71306 14.042 5.66912 14.0449 5.62224 14.0537L5.48455 14.0713L5.34392 14.08L5.27361 14.0859C5.25017 14.0859 5.22673 14.0859 5.2033 14.0859H5.0656C5.01872 14.0859 4.97185 14.08 4.92791 14.0771C4.55876 14.0537 4.20134 13.9365 3.88787 13.7549C3.58025 13.5615 3.31658 13.3037 3.12615 12.9931C3.10271 12.955 3.07634 12.917 3.05583 12.8759L2.99138 12.7558C2.97966 12.7353 2.97087 12.7148 2.95915 12.6943L2.93279 12.6328L2.87712 12.5068L2.83025 12.3779C2.8156 12.334 2.79802 12.2929 2.7863 12.249C2.76287 12.1611 2.73357 12.0732 2.71306 11.9824C2.6281 11.625 2.58708 11.2558 2.58122 10.8838C2.57244 10.5117 2.60173 10.1396 2.64861 9.77048C2.69841 9.40134 2.77166 9.03513 2.86248 8.67184L2.89763 8.53708L2.91521 8.4697L2.93572 8.40231C2.96208 8.31149 2.98845 8.2236 3.01482 8.13278L3.10271 7.86618C3.13201 7.77829 3.16423 7.6904 3.19646 7.60251C3.32537 7.25095 3.46892 6.90524 3.63005 6.5654C3.79119 6.22556 3.96404 5.8945 4.15154 5.56931C4.33904 5.24411 4.54119 4.9277 4.75505 4.62009C4.96892 4.31247 5.19744 4.01364 5.43767 3.72653C5.67791 3.43942 5.92986 3.16403 6.19939 2.90329C6.46599 2.64255 6.74724 2.39645 7.04314 2.16794C7.33904 1.94235 7.64666 1.73141 7.97185 1.5527C8.29705 1.37399 8.63689 1.22458 8.98845 1.11911C9.07634 1.08981 9.16716 1.07224 9.25505 1.0488C9.299 1.03708 9.34587 1.03122 9.38982 1.02243L9.52459 0.998993L9.65935 0.984344L9.72673 0.975555C9.75017 0.972626 9.77361 0.972626 9.79412 0.972626L9.93181 0.966766C9.97869 0.966766 10.0226 0.969696 10.0666 0.969696C10.4299 0.978485 10.7873 1.07809 11.1066 1.24802C11.423 1.42673 11.7013 1.67868 11.9064 1.9863C11.9328 2.02438 11.9592 2.06247 11.9826 2.10056L12.0529 2.22067C12.0646 2.24118 12.0763 2.26169 12.0881 2.2822L12.1174 2.34372L12.1789 2.4697L12.2316 2.5986C12.2492 2.64255 12.2668 2.68356 12.2814 2.73044C12.3107 2.81833 12.3429 2.90622 12.3664 2.99997C12.466 3.36325 12.5187 3.73825 12.5392 4.11618C12.5597 4.49411 12.5451 4.87497 12.5041 5.2529C12.4631 5.63083 12.3986 6.00583 12.3107 6.3779C12.2228 6.74704 12.1174 7.11618 11.9885 7.4736C11.8595 7.83395 11.7189 8.18552 11.5578 8.53122C11.4025 8.87106 11.2267 9.21091 11.0363 9.54196ZM11.0363 9.54196C11.2267 9.21091 11.4025 8.87399 11.5666 8.52829C11.7277 8.18259 11.8771 7.83103 12.006 7.4736C12.0383 7.38278 12.0705 7.29489 12.0998 7.20407L12.1877 6.93161C12.217 6.84079 12.2404 6.74997 12.2697 6.65622L12.2902 6.58884L12.3078 6.51853L12.3429 6.38083C12.4367 6.01169 12.5129 5.63669 12.5627 5.25583C12.6125 4.8779 12.6388 4.49411 12.633 4.11032C12.6242 3.72653 12.5832 3.34274 12.4924 2.96481C12.4719 2.87106 12.4426 2.77731 12.4162 2.68356C12.4045 2.63669 12.3869 2.59274 12.3693 2.54587C12.3517 2.49899 12.3371 2.45505 12.3195 2.40817L12.2609 2.27341L12.2316 2.20602C12.2199 2.18259 12.2082 2.16208 12.1994 2.14157L12.132 2.01266C12.1086 1.96872 12.0793 1.9277 12.0558 1.88669C11.8508 1.5527 11.5607 1.26559 11.2209 1.05466C10.8752 0.852509 10.4826 0.729462 10.0842 0.703094C10.0344 0.700165 9.98455 0.694305 9.93474 0.694305H9.78533C9.76189 0.694305 9.73552 0.694305 9.70915 0.694305L9.63591 0.700165L9.4865 0.711884C9.43669 0.717743 9.38982 0.726532 9.34001 0.732391C9.29021 0.738251 9.24041 0.74411 9.19353 0.755829C9.09685 0.776337 9.00017 0.793915 8.90349 0.820282C8.52263 0.919891 8.15642 1.06931 7.80486 1.24509C7.45623 1.4238 7.12517 1.63181 6.80876 1.86032C6.49529 2.09177 6.19353 2.34079 5.91228 2.60739C5.6281 2.87399 5.35857 3.15524 5.10954 3.45114C4.85759 3.74704 4.61736 4.05173 4.3947 4.36813C4.17204 4.68747 3.96404 5.01267 3.76775 5.34665C3.57732 5.68356 3.39861 6.02634 3.23162 6.3779C3.06755 6.72946 2.924 7.08981 2.79509 7.45603C2.66326 7.82224 2.55779 8.19431 2.46697 8.57224C2.37615 8.95017 2.31169 9.33395 2.26775 9.72067C2.22673 10.1074 2.21208 10.5 2.23259 10.8896C2.2531 11.2793 2.30876 11.6718 2.4113 12.0527C2.43474 12.1494 2.4699 12.2431 2.49919 12.3369C2.51384 12.3838 2.53435 12.4306 2.55193 12.4746C2.56951 12.5215 2.59001 12.5654 2.60759 12.6123L2.67205 12.747L2.70427 12.8144C2.71599 12.8379 2.72771 12.8584 2.73943 12.8789L2.81267 13.0078C2.83904 13.0488 2.86833 13.0898 2.8947 13.1338C3.11736 13.4648 3.41912 13.7431 3.76775 13.9424C4.11931 14.1299 4.51189 14.2383 4.90447 14.25C4.95427 14.25 5.00408 14.2529 5.05095 14.2529L5.19744 14.247C5.22087 14.247 5.24724 14.2441 5.27068 14.2441L5.34392 14.2353L5.4904 14.2177C5.53728 14.209 5.58708 14.2002 5.63396 14.1914C5.68083 14.1826 5.73064 14.1767 5.77751 14.1621C5.87126 14.1386 5.96794 14.1181 6.05876 14.0888C6.43083 13.9775 6.78533 13.8222 7.11931 13.6377C7.45623 13.4531 7.77263 13.2363 8.07732 13.0049C8.38201 12.7705 8.66619 12.5185 8.94158 12.2519L9.04412 12.1523L9.09392 12.1025L9.14373 12.0498C9.20818 11.9795 9.27556 11.9121 9.34001 11.8418L9.53044 11.6279C9.5949 11.5576 9.65349 11.4843 9.71794 11.4111C9.96404 11.1181 10.1926 10.8134 10.4123 10.5029C10.6408 10.1953 10.8459 9.87302 11.0363 9.54196Z" fill="#161616"/>
</g>
<defs>
<clipPath id="clip0_334_2773">
<rect width="15" height="15" fill="white" transform="matrix(-1 0 0 1 15 -3.05176e-05)"/>
</clipPath>
</defs>
</svg>
