<svg width="15" height="15" viewBox="0 0 15 15" fill="none" xmlns="http://www.w3.org/2000/svg">
<g clip-path="url(#clip0_334_3164)">
<path d="M7.5 4.6582C9.06738 4.6582 10.3418 5.92969 10.3418 7.5C10.3418 9.07031 9.07031 10.3418 7.5 10.3418C5.92969 10.3418 4.6582 9.07031 4.6582 7.5C4.6582 5.92969 5.93262 4.6582 7.5 4.6582ZM7.5 5.20605C8.29688 5.20605 9.02637 5.4873 9.59473 5.95898C9.12012 5.31445 8.3584 4.89844 7.5 4.89844C6.6416 4.89844 5.87695 5.31445 5.40527 5.95898C5.97363 5.49023 6.70312 5.20605 7.5 5.20605Z" fill="#161616"/>
<path d="M7.49993 3.41602C7.11907 3.41602 6.73821 3.43359 6.35735 3.46289C5.97649 3.49512 5.59856 3.54492 5.22356 3.60937C5.12981 3.62695 5.03606 3.6416 4.94231 3.66211L4.66106 3.7207C4.56731 3.74121 4.47649 3.76465 4.38274 3.78809L4.31243 3.80566L4.24212 3.82324L4.10442 3.86133C3.73821 3.9668 3.37493 4.08691 3.02044 4.2334C2.66595 4.37988 2.32024 4.54688 1.99212 4.74609C1.66399 4.94531 1.35052 5.17383 1.06927 5.44043C0.996024 5.50488 0.931571 5.57812 0.864188 5.64844C0.829032 5.68359 0.799736 5.72168 0.767509 5.75684L0.673759 5.86816L0.585868 5.98535L0.541923 6.04395C0.527274 6.06445 0.515556 6.08496 0.500908 6.10547L0.421805 6.22852C0.395438 6.26953 0.37493 6.31348 0.351493 6.35742C0.163993 6.70312 0.0614548 7.09863 0.049736 7.49707C0.0468063 7.89551 0.134697 8.2998 0.313408 8.65723C0.336845 8.70117 0.357352 8.74805 0.38079 8.79199L0.456963 8.9209C0.468681 8.94141 0.480399 8.96484 0.495048 8.98535L0.536063 9.04687L0.621025 9.16992C0.650322 9.20801 0.682548 9.24902 0.711844 9.28711C0.744071 9.32519 0.773368 9.36621 0.805594 9.40137C0.870048 9.47461 0.934501 9.55078 1.00774 9.61816C1.28606 9.89941 1.59661 10.1426 1.92474 10.3564C2.25286 10.5703 2.59856 10.7549 2.95599 10.9102C3.31341 11.0684 3.67962 11.2031 4.05169 11.3145C4.42376 11.4258 4.80169 11.5195 5.18255 11.5898C5.56341 11.6602 5.95013 11.7158 6.33392 11.751C6.72063 11.7832 7.10735 11.8008 7.49407 11.8037C7.88079 11.8008 8.27044 11.7832 8.65423 11.751C9.04095 11.7158 9.42474 11.6602 9.80559 11.5898C10.1865 11.5195 10.5644 11.4258 10.9365 11.3145C11.3085 11.2031 11.6747 11.0684 12.0322 10.9102C12.3896 10.752 12.7353 10.5703 13.0634 10.3564C13.4003 10.1455 13.7109 9.90234 13.9892 9.62109C14.0595 9.55371 14.124 9.47754 14.1913 9.4043C14.2265 9.36914 14.2558 9.32812 14.2851 9.29004C14.3144 9.25195 14.3466 9.21094 14.3759 9.17285L14.4609 9.0498L14.5019 8.98828C14.5165 8.96777 14.5283 8.94434 14.54 8.92383L14.6161 8.79492C14.6396 8.75098 14.6601 8.7041 14.6835 8.66016C14.8593 8.30273 14.9501 7.89844 14.9472 7.5C14.9355 7.10156 14.8329 6.70605 14.6454 6.36035C14.622 6.31641 14.6015 6.27246 14.5751 6.23145L14.496 6.1084C14.4814 6.08789 14.4697 6.06738 14.455 6.04687L14.4111 5.98828L14.3232 5.87109L14.2294 5.75977C14.1972 5.72168 14.1679 5.68359 14.1327 5.65137C14.0654 5.58105 14.0009 5.50781 13.9277 5.44336C13.6464 5.17676 13.3329 4.94824 13.0048 4.74902C12.6767 4.5498 12.331 4.38281 11.9765 4.23633C11.622 4.08984 11.2587 3.96973 10.8925 3.86426L10.7548 3.82617L10.6845 3.80859L10.6142 3.79102C10.5204 3.76758 10.4296 3.74414 10.3359 3.72363L10.0546 3.66504C9.96087 3.64453 9.86712 3.62988 9.77337 3.6123C9.39837 3.54785 9.01751 3.49805 8.63958 3.46582C8.26165 3.43066 7.88079 3.41602 7.49993 3.41602ZM7.49993 3.41602C7.88079 3.41895 8.26165 3.43652 8.64251 3.46875C9.02337 3.50391 9.4013 3.55664 9.77337 3.62695C10.1484 3.69434 10.5175 3.78809 10.8837 3.89648C11.247 4.00488 11.6074 4.13672 11.9531 4.29199C12.3017 4.44434 12.6357 4.62305 12.955 4.83105C13.2714 5.03613 13.5702 5.27051 13.8339 5.54004C13.9013 5.60449 13.9628 5.67773 14.0243 5.74805C14.0566 5.7832 14.0829 5.82129 14.1122 5.85645L14.1972 5.96777L14.2763 6.08203L14.3144 6.14062C14.3261 6.16113 14.3378 6.18164 14.3495 6.19922L14.4199 6.31934C14.4433 6.36035 14.4609 6.40137 14.4814 6.44238C14.6484 6.77051 14.7275 7.13672 14.7245 7.5C14.7128 7.86328 14.6191 8.2207 14.4433 8.54004C14.4228 8.58105 14.4023 8.62207 14.3788 8.66016L14.3056 8.77441C14.2939 8.79492 14.2822 8.8125 14.2675 8.83301L14.2265 8.88867L14.1445 9L14.0566 9.10547C14.0273 9.14062 13.998 9.17578 13.9658 9.20801C13.9013 9.27246 13.8398 9.34277 13.7724 9.4043C13.5058 9.65625 13.204 9.87598 12.8876 10.0693C12.5712 10.2598 12.2343 10.4238 11.8886 10.5674C11.5429 10.7109 11.1884 10.8281 10.831 10.9307C10.4706 11.0332 10.1044 11.1123 9.73528 11.1768C9.36614 11.2412 8.99407 11.2881 8.622 11.3203C8.247 11.3496 7.872 11.3643 7.497 11.3672C7.122 11.3672 6.747 11.3496 6.372 11.3203C5.99993 11.2881 5.62786 11.2412 5.25872 11.1768C5.1679 11.1592 5.07415 11.1445 4.98333 11.124L4.70794 11.0654C4.61712 11.0449 4.5263 11.0215 4.43548 11.001L4.3681 10.9834L4.30071 10.9658L4.16595 10.9277C3.8056 10.8252 3.4511 10.708 3.1054 10.5645C2.76263 10.4209 2.42571 10.2598 2.10638 10.0664C1.78997 9.87598 1.48821 9.65625 1.22161 9.40137C1.1513 9.33984 1.0927 9.27246 1.02825 9.20508C0.996025 9.17285 0.966727 9.1377 0.93743 9.10254L0.84954 8.99707L0.767509 8.88574L0.726493 8.83008C0.714774 8.8125 0.703055 8.79199 0.688407 8.77148L0.615165 8.65723C0.591727 8.61914 0.571219 8.57812 0.550712 8.53711C0.37786 8.21777 0.284111 7.85742 0.269463 7.49414C0.266533 7.13086 0.345634 6.76465 0.509696 6.43359C0.530204 6.39258 0.547782 6.34863 0.571219 6.31055L0.641532 6.19043C0.653251 6.16992 0.66497 6.14941 0.676689 6.13184L0.714774 6.07324L0.793877 5.95898L0.878837 5.84766C0.908134 5.80957 0.934501 5.77441 0.966727 5.73926C1.02825 5.66895 1.08977 5.59863 1.15716 5.53125C1.42083 5.26465 1.71966 5.03027 2.03606 4.82227C2.35247 4.61719 2.68938 4.43848 3.03802 4.2832C3.38665 4.13086 3.74407 3.99902 4.10735 3.8877C4.47063 3.7793 4.8427 3.68555 5.2177 3.61816C5.5927 3.54785 5.97063 3.49512 6.34856 3.45996C6.73821 3.43359 7.11907 3.41895 7.49993 3.41602Z" fill="#161616"/>
<path d="M3.96394 9.54199C4.15437 9.87305 4.35945 10.1953 4.57625 10.5088C4.79304 10.8223 5.02449 11.124 5.27058 11.417C5.33211 11.4902 5.39363 11.5635 5.45808 11.6338L5.64851 11.8477C5.71296 11.918 5.78035 11.9854 5.8448 12.0557L5.89461 12.1084L5.94441 12.1582L6.04695 12.2578C6.31941 12.5244 6.60652 12.7764 6.91121 13.0107C7.21589 13.2422 7.5323 13.459 7.86922 13.6436C8.20613 13.8281 8.56062 13.9863 8.92976 14.0947C9.02058 14.124 9.11726 14.1445 9.21101 14.168C9.25789 14.1797 9.30476 14.1885 9.35457 14.1973C9.40144 14.2061 9.45125 14.2148 9.49812 14.2236L9.64461 14.2412L9.71785 14.25C9.74129 14.2529 9.76765 14.2529 9.79109 14.2529L9.93757 14.2588C9.98738 14.2588 10.0343 14.2559 10.0841 14.2559C10.4766 14.2441 10.8692 14.1387 11.2208 13.9482C11.5665 13.752 11.8712 13.4736 12.0938 13.1396C12.1202 13.0986 12.1495 13.0576 12.1759 13.0137L12.2491 12.8848C12.2608 12.8643 12.2755 12.8408 12.2843 12.8203L12.3165 12.7529L12.3809 12.6182C12.4014 12.5713 12.419 12.5273 12.4366 12.4805C12.4542 12.4336 12.4747 12.3896 12.4893 12.3428C12.5216 12.249 12.5538 12.1553 12.5772 12.0586C12.6827 11.6777 12.7354 11.2881 12.7559 10.8955C12.7764 10.5059 12.7618 10.1133 12.7208 9.72656C12.6798 9.33984 12.6124 8.95605 12.5216 8.57812C12.4337 8.20019 12.3253 7.8252 12.1934 7.46191C12.0645 7.0957 11.918 6.73535 11.7569 6.38379C11.5928 6.03223 11.4141 5.68945 11.2208 5.35254C11.0245 5.01855 10.8165 4.69043 10.5938 4.37402C10.3712 4.05762 10.1309 3.75293 9.87898 3.45703C9.62703 3.16113 9.3575 2.87988 9.07625 2.61328C8.79207 2.34668 8.49324 2.09766 8.17976 1.86621C7.86629 1.63477 7.5323 1.42676 7.18367 1.25098C6.8409 1.06641 6.47468 0.919922 6.09382 0.820312C6.00007 0.793945 5.90047 0.776367 5.80379 0.755859C5.75691 0.744141 5.70711 0.738281 5.6573 0.732422C5.6075 0.726562 5.56062 0.717773 5.51082 0.711914L5.3614 0.700195L5.28816 0.694336C5.26472 0.694336 5.23836 0.694336 5.21199 0.694336H5.06257C5.01277 0.694336 4.96297 0.700195 4.91316 0.703125C4.51472 0.729492 4.12214 0.852539 3.77644 1.05469C3.4366 1.26562 3.14656 1.55273 2.94148 1.88672C2.91511 1.92773 2.88875 1.96875 2.86531 2.0127L2.79793 2.1416C2.78621 2.16211 2.77449 2.18555 2.7657 2.20605L2.7364 2.27344L2.67781 2.4082C2.66023 2.45508 2.64558 2.49902 2.628 2.5459C2.61043 2.59277 2.59285 2.63672 2.58113 2.68359C2.55476 2.77734 2.52254 2.86816 2.50496 2.96484C2.41414 3.34277 2.37312 3.72656 2.36433 4.11035C2.35554 4.49414 2.38484 4.87793 2.43464 5.25586C2.48445 5.63672 2.56062 6.01172 2.65437 6.38086L2.68953 6.51855L2.7071 6.58887L2.72761 6.65625C2.75398 6.74707 2.78035 6.84082 2.80964 6.93164L2.89753 7.2041C2.92683 7.29492 2.96199 7.38281 2.99129 7.47363C3.12312 7.83106 3.26961 8.18262 3.43074 8.52832C3.5948 8.87402 3.77351 9.21094 3.96394 9.54199ZM3.96394 9.54199C3.77644 9.21094 3.60066 8.87109 3.4366 8.52832C3.27546 8.18262 3.13484 7.82812 3.00593 7.4707C2.87703 7.11328 2.77156 6.74414 2.68367 6.375C2.59578 6.00586 2.53132 5.62793 2.49031 5.25C2.44929 4.87207 2.43757 4.49121 2.45515 4.11328C2.47566 3.73535 2.52839 3.36035 2.628 2.99707C2.65144 2.90625 2.68367 2.81836 2.71297 2.72754C2.72761 2.68359 2.74519 2.63965 2.76277 2.5957L2.8155 2.4668L2.87703 2.34082L2.90632 2.2793C2.91804 2.25879 2.92976 2.23828 2.94148 2.21777L3.01179 2.09766C3.03523 2.05957 3.06453 2.02148 3.08796 1.9834C3.29304 1.67578 3.57136 1.42383 3.88777 1.24512C4.20711 1.0752 4.56453 0.975586 4.92781 0.966797C4.97468 0.966797 5.01863 0.963867 5.06257 0.963867L5.20027 0.969727C5.22371 0.969727 5.24714 0.969727 5.26765 0.972656L5.33504 0.981445L5.4698 0.996094L5.60457 1.01953C5.64851 1.02832 5.69539 1.03418 5.73933 1.0459C5.82722 1.06934 5.91804 1.08691 6.00593 1.11621C6.3575 1.22168 6.70027 1.37109 7.02254 1.5498C7.34773 1.72852 7.65535 1.93945 7.95125 2.16504C8.24714 2.39355 8.52547 2.63965 8.795 2.90039C9.0616 3.16113 9.31648 3.43652 9.55671 3.72363C9.79695 4.01074 10.0225 4.30957 10.2393 4.61719C10.4532 4.92481 10.6524 5.24121 10.8428 5.56641C11.0303 5.8916 11.2032 6.22266 11.3643 6.5625C11.5225 6.90234 11.669 7.24805 11.7979 7.59961C11.8302 7.6875 11.8624 7.77539 11.8917 7.86328L11.9796 8.12988C12.0059 8.2207 12.0323 8.30859 12.0587 8.39941L12.0792 8.4668L12.0968 8.53418L12.1319 8.66894C12.2227 9.03223 12.2989 9.39844 12.3458 9.76758C12.3927 10.1367 12.4219 10.5088 12.4132 10.8809C12.4073 11.2529 12.3663 11.6221 12.2813 11.9795C12.2637 12.0703 12.2344 12.1582 12.2081 12.2461C12.1964 12.29 12.1788 12.334 12.1641 12.375L12.1173 12.5039L12.0616 12.6299L12.0352 12.6914C12.0264 12.7119 12.0147 12.7324 12.003 12.7529L11.9386 12.873C11.9151 12.9141 11.8917 12.9492 11.8682 12.9902C11.6778 13.3008 11.4141 13.5615 11.1065 13.752C10.793 13.9365 10.4356 14.0508 10.0665 14.0742C10.0196 14.0771 9.97566 14.083 9.92878 14.083H9.79109C9.76765 14.083 9.74422 14.083 9.72078 14.083L9.65046 14.0771L9.50984 14.0684L9.37214 14.0508C9.32527 14.0449 9.27839 14.0391 9.23445 14.0273C9.14363 14.0068 9.04988 13.9922 8.95906 13.9658C8.59578 13.8721 8.24422 13.7285 7.9073 13.5586C7.57039 13.3857 7.24812 13.1865 6.9405 12.9609C6.63289 12.7354 6.33992 12.4922 6.06453 12.2314C5.78621 11.9707 5.52254 11.6953 5.27644 11.4053C5.03035 11.1152 4.79304 10.8164 4.57332 10.5029C4.35945 10.1924 4.15437 9.87012 3.96394 9.54199Z" fill="#161616"/>
<path d="M11.0363 9.54199C10.8429 9.87012 10.6379 10.1924 10.4211 10.5059C10.2013 10.8164 9.96697 11.1182 9.71794 11.4082C9.47185 11.6982 9.20818 11.9736 8.92986 12.2344C8.65154 12.4951 8.3615 12.7383 8.05388 12.9639C7.74626 13.1895 7.424 13.3887 7.08708 13.5615C6.75017 13.7344 6.39861 13.875 6.03533 13.9688C5.94451 13.9951 5.85369 14.0127 5.75994 14.0303C5.71306 14.042 5.66912 14.0449 5.62224 14.0537L5.48455 14.0713L5.34392 14.0801L5.27361 14.0859C5.25017 14.0859 5.22673 14.0859 5.2033 14.0859H5.0656C5.01872 14.0859 4.97185 14.0801 4.92791 14.0771C4.55876 14.0537 4.20134 13.9365 3.88787 13.7549C3.58025 13.5615 3.31658 13.3037 3.12615 12.9932C3.10271 12.9551 3.07634 12.917 3.05583 12.876L2.99138 12.7559C2.97966 12.7354 2.97087 12.7148 2.95915 12.6943L2.93279 12.6328L2.87712 12.5068L2.83025 12.3779C2.8156 12.334 2.79802 12.293 2.7863 12.249C2.76287 12.1611 2.73357 12.0732 2.71306 11.9824C2.6281 11.625 2.58708 11.2559 2.58122 10.8838C2.57244 10.5117 2.60173 10.1396 2.64861 9.77051C2.69841 9.40137 2.77166 9.03516 2.86248 8.67188L2.89763 8.53711L2.91521 8.46973L2.93572 8.40234C2.96208 8.31152 2.98845 8.22363 3.01482 8.13281L3.10271 7.86621C3.13201 7.77832 3.16423 7.69043 3.19646 7.60254C3.32537 7.25098 3.46892 6.90527 3.63005 6.56543C3.79119 6.22559 3.96404 5.89453 4.15154 5.56934C4.33904 5.24414 4.54119 4.92773 4.75505 4.62012C4.96892 4.3125 5.19744 4.01367 5.43767 3.72656C5.67791 3.43945 5.92986 3.16406 6.19939 2.90332C6.46599 2.64258 6.74724 2.39648 7.04314 2.16797C7.33904 1.94238 7.64666 1.73145 7.97185 1.55273C8.29705 1.37402 8.63689 1.22461 8.98845 1.11914C9.07634 1.08984 9.16716 1.07227 9.25505 1.04883C9.299 1.03711 9.34587 1.03125 9.38982 1.02246L9.52459 0.999023L9.65935 0.984375L9.72673 0.975586C9.75017 0.972656 9.77361 0.972656 9.79412 0.972656L9.93181 0.966797C9.97869 0.966797 10.0226 0.969727 10.0666 0.969727C10.4299 0.978516 10.7873 1.07812 11.1066 1.24805C11.423 1.42676 11.7013 1.67871 11.9064 1.98633C11.9328 2.02441 11.9592 2.0625 11.9826 2.10059L12.0529 2.2207C12.0646 2.24121 12.0763 2.26172 12.0881 2.28223L12.1174 2.34375L12.1789 2.46973L12.2316 2.59863C12.2492 2.64258 12.2668 2.68359 12.2814 2.73047C12.3107 2.81836 12.3429 2.90625 12.3664 3C12.466 3.36328 12.5187 3.73828 12.5392 4.11621C12.5597 4.49414 12.5451 4.875 12.5041 5.25293C12.4631 5.63086 12.3986 6.00586 12.3107 6.37793C12.2228 6.74707 12.1174 7.11621 11.9885 7.47363C11.8595 7.83399 11.7189 8.18555 11.5578 8.53125C11.4025 8.87109 11.2267 9.21094 11.0363 9.54199ZM11.0363 9.54199C11.2267 9.21094 11.4025 8.87402 11.5666 8.52832C11.7277 8.18262 11.8771 7.83106 12.006 7.47363C12.0383 7.38281 12.0705 7.29492 12.0998 7.2041L12.1877 6.93164C12.217 6.84082 12.2404 6.75 12.2697 6.65625L12.2902 6.58887L12.3078 6.51856L12.3429 6.38086C12.4367 6.01172 12.5129 5.63672 12.5627 5.25586C12.6125 4.87793 12.6388 4.49414 12.633 4.11035C12.6242 3.72656 12.5832 3.34277 12.4924 2.96484C12.4719 2.87109 12.4426 2.77734 12.4162 2.68359C12.4045 2.63672 12.3869 2.59277 12.3693 2.5459C12.3517 2.49902 12.3371 2.45508 12.3195 2.4082L12.2609 2.27344L12.2316 2.20605C12.2199 2.18262 12.2082 2.16211 12.1994 2.1416L12.132 2.0127C12.1086 1.96875 12.0793 1.92773 12.0558 1.88672C11.8508 1.55273 11.5607 1.26563 11.2209 1.05469C10.8752 0.852539 10.4826 0.729492 10.0842 0.703125C10.0344 0.700195 9.98455 0.694336 9.93474 0.694336H9.78533C9.76189 0.694336 9.73552 0.694336 9.70915 0.694336L9.63591 0.700195L9.4865 0.711914C9.43669 0.717773 9.38982 0.726562 9.34001 0.732422C9.29021 0.738281 9.24041 0.744141 9.19353 0.755859C9.09685 0.776367 9.00017 0.793945 8.90349 0.820312C8.52263 0.919922 8.15642 1.06934 7.80486 1.24512C7.45623 1.42383 7.12517 1.63184 6.80876 1.86035C6.49529 2.0918 6.19353 2.34082 5.91228 2.60742C5.6281 2.87402 5.35857 3.15527 5.10954 3.45117C4.85759 3.74707 4.61736 4.05176 4.3947 4.36816C4.17204 4.6875 3.96404 5.0127 3.76775 5.34668C3.57732 5.68359 3.39861 6.02637 3.23162 6.37793C3.06755 6.72949 2.924 7.08984 2.79509 7.45606C2.66326 7.82227 2.55779 8.19434 2.46697 8.57227C2.37615 8.9502 2.31169 9.33398 2.26775 9.7207C2.22673 10.1074 2.21208 10.5 2.23259 10.8896C2.2531 11.2793 2.30876 11.6719 2.4113 12.0527C2.43474 12.1494 2.4699 12.2432 2.49919 12.3369C2.51384 12.3838 2.53435 12.4307 2.55193 12.4746C2.56951 12.5215 2.59001 12.5654 2.60759 12.6123L2.67205 12.7471L2.70427 12.8145C2.71599 12.8379 2.72771 12.8584 2.73943 12.8789L2.81267 13.0078C2.83904 13.0488 2.86833 13.0898 2.8947 13.1338C3.11736 13.4648 3.41912 13.7432 3.76775 13.9424C4.11931 14.1299 4.51189 14.2383 4.90447 14.25C4.95427 14.25 5.00408 14.2529 5.05095 14.2529L5.19744 14.2471C5.22087 14.2471 5.24724 14.2441 5.27068 14.2441L5.34392 14.2354L5.4904 14.2178C5.53728 14.209 5.58708 14.2002 5.63396 14.1914C5.68083 14.1826 5.73064 14.1768 5.77751 14.1621C5.87126 14.1387 5.96794 14.1182 6.05876 14.0889C6.43083 13.9775 6.78533 13.8223 7.11931 13.6377C7.45623 13.4531 7.77263 13.2363 8.07732 13.0049C8.38201 12.7705 8.66619 12.5186 8.94158 12.252L9.04412 12.1523L9.09392 12.1025L9.14373 12.0498C9.20818 11.9795 9.27556 11.9121 9.34001 11.8418L9.53044 11.6279C9.5949 11.5576 9.65349 11.4844 9.71794 11.4111C9.96404 11.1182 10.1926 10.8135 10.4123 10.5029C10.6408 10.1953 10.8459 9.87305 11.0363 9.54199Z" fill="#161616"/>
</g>
<defs>
<clipPath id="clip0_334_3164">
<rect width="15" height="15" fill="white" transform="matrix(-1 0 0 1 15 0)"/>
</clipPath>
</defs>
</svg>
