<svg width="11" height="10" viewBox="0 0 11 10" fill="none" xmlns="http://www.w3.org/2000/svg">
<path d="M0.558711 9.99999C0.631809 10.0004 0.704272 9.9864 0.771945 9.95876C0.839617 9.93112 0.901166 9.89039 0.953065 9.83892L5.3965 5.39549C5.44856 5.34385 5.48988 5.28242 5.51807 5.21474C5.54627 5.14705 5.56079 5.07445 5.56079 5.00113C5.56079 4.92781 5.54627 4.85521 5.51807 4.78753C5.48988 4.71984 5.44856 4.65841 5.3965 4.60678L0.953065 0.163347C0.848476 0.0587577 0.706623 0 0.558711 0C0.410799 0 0.268946 0.0587577 0.164357 0.163347C0.0597679 0.267936 0.00100994 0.40979 0.00100994 0.557701C0.00100994 0.705613 0.0597679 0.847467 0.164357 0.952056L4.21899 5.00113L0.164357 9.05021C0.112298 9.10184 0.0709764 9.16327 0.042778 9.23096C0.0145796 9.29864 6.19888e-05 9.37124 6.19888e-05 9.44456C6.19888e-05 9.51789 0.0145796 9.59048 0.042778 9.65817C0.0709764 9.72585 0.112298 9.78728 0.164357 9.83892C0.216256 9.89039 0.277806 9.93112 0.345478 9.95876C0.41315 9.9864 0.485613 10.0004 0.558711 9.99999Z" fill="#161616"/>
<path d="M5.55847 9.99999C5.63157 10.0004 5.70403 9.9864 5.7717 9.95876C5.83937 9.93112 5.90092 9.89039 5.95282 9.83892L10.3963 5.39549C10.4483 5.34385 10.4896 5.28242 10.5178 5.21474C10.546 5.14705 10.5605 5.07445 10.5605 5.00113C10.5605 4.92781 10.546 4.85521 10.5178 4.78753C10.4896 4.71984 10.4483 4.65841 10.3963 4.60678L5.95282 0.163347C5.84823 0.0587577 5.70638 0 5.55847 0C5.41056 0 5.2687 0.0587577 5.16411 0.163347C5.05952 0.267936 5.00077 0.40979 5.00077 0.557701C5.00077 0.705613 5.05952 0.847467 5.16411 0.952056L9.21874 5.00113L5.16411 9.05021C5.11205 9.10184 5.07073 9.16327 5.04253 9.23096C5.01434 9.29864 4.99982 9.37124 4.99982 9.44456C4.99982 9.51789 5.01434 9.59048 5.04253 9.65817C5.07073 9.72585 5.11205 9.78728 5.16411 9.83892C5.21601 9.89039 5.27756 9.93112 5.34523 9.95876C5.41291 9.9864 5.48537 10.0004 5.55847 9.99999Z" fill="#161616"/>
</svg>
