<svg width="11" height="10" viewBox="0 0 11 10" fill="none" xmlns="http://www.w3.org/2000/svg">
<path d="M0.558467 9.99999C0.631565 10.0004 0.704028 9.9864 0.7717 9.95876C0.839372 9.93112 0.900922 9.89039 0.952821 9.83892L5.39625 5.39549C5.44831 5.34385 5.48963 5.28242 5.51783 5.21474C5.54603 5.14705 5.56055 5.07445 5.56055 5.00113C5.56055 4.92781 5.54603 4.85521 5.51783 4.78753C5.48963 4.71984 5.44831 4.65841 5.39625 4.60678L0.952821 0.163347C0.848232 0.0587577 0.706379 0 0.558467 0C0.410555 0 0.268702 0.0587577 0.164113 0.163347C0.0595237 0.267936 0.0007658 0.40979 0.0007658 0.557701C0.0007658 0.705613 0.0595237 0.847467 0.164113 0.952056L4.21874 5.00113L0.164113 9.05021C0.112054 9.10184 0.0707323 9.16327 0.0425339 9.23096C0.0143355 9.29864 -0.000182152 9.37124 -0.000182152 9.44456C-0.000182152 9.51789 0.0143355 9.59048 0.0425339 9.65817C0.0707323 9.72585 0.112054 9.78728 0.164113 9.83892C0.216012 9.89039 0.277562 9.93112 0.345234 9.95876C0.412906 9.9864 0.485369 10.0004 0.558467 9.99999Z" fill="#161616"/>
<path d="M5.55847 9.99999C5.63157 10.0004 5.70403 9.9864 5.7717 9.95876C5.83937 9.93112 5.90092 9.89039 5.95282 9.83892L10.3963 5.39549C10.4483 5.34385 10.4896 5.28242 10.5178 5.21474C10.546 5.14705 10.5605 5.07445 10.5605 5.00113C10.5605 4.92781 10.546 4.85521 10.5178 4.78753C10.4896 4.71984 10.4483 4.65841 10.3963 4.60678L5.95282 0.163347C5.84823 0.0587577 5.70638 0 5.55847 0C5.41056 0 5.2687 0.0587577 5.16411 0.163347C5.05952 0.267936 5.00077 0.40979 5.00077 0.557701C5.00077 0.705613 5.05952 0.847467 5.16411 0.952056L9.21874 5.00113L5.16411 9.05021C5.11205 9.10184 5.07073 9.16327 5.04253 9.23096C5.01434 9.29864 4.99982 9.37124 4.99982 9.44456C4.99982 9.51789 5.01434 9.59048 5.04253 9.65817C5.07073 9.72585 5.11205 9.78728 5.16411 9.83892C5.21601 9.89039 5.27756 9.93112 5.34523 9.95876C5.41291 9.9864 5.48537 10.0004 5.55847 9.99999Z" fill="#161616"/>
</svg>
