<svg width="19" height="19" viewBox="0 0 19 19" fill="none" xmlns="http://www.w3.org/2000/svg">
<path fill-rule="evenodd" clip-rule="evenodd" d="M5.32603 16.6166C5.71676 16.6166 6.03434 16.9398 6.03434 17.3375C6.03434 17.7353 5.71676 18.0576 5.32603 18.0576C4.93531 18.0576 4.61865 17.7353 4.61865 17.3375C4.61865 16.9398 4.93531 16.6166 5.32603 16.6166Z" stroke="#161616" stroke-width="1.5" stroke-linecap="round" stroke-linejoin="round"/>
<path fill-rule="evenodd" clip-rule="evenodd" d="M15.7444 16.6166C16.1352 16.6166 16.4527 16.9398 16.4527 17.3375C16.4527 17.7353 16.1352 18.0576 15.7444 18.0576C15.3537 18.0576 15.0361 17.7353 15.0361 17.3375C15.0361 16.9398 15.3537 16.6166 15.7444 16.6166Z" stroke="#161616" stroke-width="1.5" stroke-linecap="round" stroke-linejoin="round"/>
<path d="M1 1L2.92585 1.33928L3.81748 12.1519C3.8897 13.0331 4.61282 13.7098 5.48131 13.7098H15.5846C16.4142 13.7098 17.1179 13.0897 17.2373 12.2528L18.116 6.07223C18.2243 5.30979 17.6438 4.62746 16.8873 4.62746H3.2351" stroke="#161616" stroke-width="1.5" stroke-linecap="round" stroke-linejoin="round"/>
<path d="M11.5322 8.11075H14.0997" stroke="#161616" stroke-width="1.5" stroke-linecap="round" stroke-linejoin="round"/>
</svg>
