<svg width="15" height="15" viewBox="0 0 15 15" fill="none" xmlns="http://www.w3.org/2000/svg">
<path d="M7.5 14.9999C3.36417 14.9999 0 11.6353 0 7.49988C0 3.36441 3.36417 -0.00012207 7.5 -0.00012207C11.6358 -0.00012207 15 3.36441 15 7.49988C15 11.6353 11.6358 14.9999 7.5 14.9999ZM7.5 1.08825C3.96459 1.08825 1.08838 3.96447 1.08838 7.49988C1.08838 11.0353 3.96459 13.9115 7.5 13.9115C11.0354 13.9115 13.9116 11.0353 13.9116 7.49988C13.9116 3.96447 11.0354 1.08825 7.5 1.08825Z" fill="#FF5A50"/>
<path d="M10.6168 11.2465C10.5453 11.2465 10.4746 11.2325 10.4085 11.2051C10.3425 11.1778 10.2825 11.1377 10.2319 11.0872L3.99768 4.85264C3.9457 4.80244 3.90424 4.74239 3.87572 4.676C3.8472 4.6096 3.83219 4.5382 3.83156 4.46594C3.83094 4.39368 3.8447 4.32202 3.87207 4.25515C3.89943 4.18827 3.93984 4.12751 3.99093 4.07641C4.04203 4.02532 4.10279 3.98491 4.16967 3.95755C4.23654 3.93018 4.3082 3.91642 4.38046 3.91704C4.45272 3.91767 4.52412 3.93268 4.59052 3.9612C4.65691 3.98972 4.71696 4.03118 4.76716 4.08316L11.0017 10.3177C11.0778 10.3939 11.1295 10.4908 11.1505 10.5964C11.1714 10.7019 11.1606 10.8113 11.1194 10.9107C11.0782 11.01 11.0085 11.095 10.919 11.1548C10.8296 11.2145 10.7244 11.2465 10.6168 11.2465Z" fill="#FF5A50"/>
<path d="M4.38209 11.2465C4.27453 11.2464 4.16941 11.2144 4.08 11.1546C3.9906 11.0948 3.92092 11.0098 3.87978 10.9105C3.83863 10.8111 3.82785 10.7017 3.84881 10.5962C3.86977 10.4907 3.92152 10.3938 3.99753 10.3177L10.2317 4.08314C10.3338 3.98105 10.4722 3.92368 10.6165 3.92365C10.7609 3.92361 10.8993 3.98092 11.0014 4.08296C11.1035 4.185 11.1609 4.32341 11.1609 4.46775C11.1609 4.61209 11.1036 4.75053 11.0016 4.85262L4.76701 11.0872C4.71645 11.1377 4.65644 11.1778 4.59039 11.2051C4.52435 11.2325 4.45356 11.2465 4.38209 11.2465Z" fill="#FF5A50"/>
</svg>
