<svg width="15" height="15" viewBox="0 0 15 15" fill="none" xmlns="http://www.w3.org/2000/svg">
<path d="M7.41176 11.8235C4.97892 11.8235 3 9.84439 3 7.41176C3 4.97914 4.97892 3 7.41176 3C9.84461 3 11.8235 4.97914 11.8235 7.41176C11.8235 9.84439 9.84461 11.8235 7.41176 11.8235ZM7.41176 3.64022C5.33211 3.64022 3.64022 5.33211 3.64022 7.41176C3.64022 9.49142 5.33211 11.1833 7.41176 11.1833C9.49142 11.1833 11.1833 9.49142 11.1833 7.41176C11.1833 5.33211 9.49142 3.64022 7.41176 3.64022Z" fill="#E2E2E2"/>
<path d="M9.24549 9.61565C9.20344 9.61567 9.16181 9.6074 9.12296 9.59133C9.08411 9.57525 9.0488 9.55168 9.01906 9.52196L5.35188 5.85456C5.3213 5.82503 5.29692 5.78971 5.28014 5.75066C5.26336 5.7116 5.25453 5.6696 5.25416 5.62709C5.25379 5.58459 5.26189 5.54244 5.27799 5.5031C5.29408 5.46375 5.31785 5.42801 5.34791 5.39796C5.37796 5.3679 5.41371 5.34413 5.45305 5.32804C5.49239 5.31194 5.53454 5.30384 5.57704 5.30421C5.61955 5.30458 5.66155 5.31341 5.70061 5.33019C5.73966 5.34696 5.77498 5.37135 5.80451 5.40193L9.47191 9.06933C9.51664 9.11411 9.54708 9.17114 9.55941 9.23322C9.57173 9.29529 9.56537 9.35963 9.54114 9.4181C9.51691 9.47657 9.47589 9.52654 9.42326 9.5617C9.37064 9.59686 9.30878 9.61563 9.24549 9.61565Z" fill="#E2E2E2"/>
<path d="M5.57789 9.61565C5.51462 9.61559 5.45278 9.59679 5.40019 9.56161C5.3476 9.52643 5.30661 9.47646 5.28241 9.418C5.2582 9.35954 5.25186 9.29522 5.26419 9.23316C5.27652 9.17111 5.30696 9.11409 5.35167 9.06933L9.01886 5.40193C9.07889 5.34187 9.16031 5.30813 9.24521 5.30811C9.33012 5.30809 9.41155 5.34179 9.4716 5.40182C9.53166 5.46184 9.5654 5.54326 9.56542 5.62817C9.56544 5.71307 9.53173 5.79451 9.47171 5.85456L5.80431 9.52196C5.77457 9.55168 5.73927 9.57525 5.70042 9.59133C5.66157 9.6074 5.61993 9.61567 5.57789 9.61565Z" fill="#E2E2E2"/>
</svg>
