<svg width="15" height="15" viewBox="0 0 15 15" fill="none" xmlns="http://www.w3.org/2000/svg">
<path d="M7.41176 11.8235C4.97892 11.8235 3 9.84439 3 7.41176C3 4.97914 4.97892 3 7.41176 3C9.84461 3 11.8235 4.97914 11.8235 7.41176C11.8235 9.84439 9.84461 11.8235 7.41176 11.8235ZM7.41176 3.64022C5.33211 3.64022 3.64022 5.33211 3.64022 7.41176C3.64022 9.49142 5.33211 11.1833 7.41176 11.1833C9.49142 11.1833 11.1833 9.49142 11.1833 7.41176C11.1833 5.33211 9.49142 3.64022 7.41176 3.64022Z" fill="#E2E2E2"/>
<path d="M9.24524 9.61565C9.2032 9.61567 9.16156 9.6074 9.12271 9.59133C9.08386 9.57525 9.04856 9.55168 9.01882 9.52196L5.35163 5.85456C5.32106 5.82503 5.29667 5.78971 5.27989 5.75066C5.26312 5.7116 5.25429 5.6696 5.25392 5.62709C5.25355 5.58459 5.26165 5.54244 5.27774 5.5031C5.29384 5.46375 5.31761 5.42801 5.34766 5.39796C5.37772 5.3679 5.41346 5.34413 5.4528 5.32804C5.49214 5.31194 5.53429 5.30384 5.5768 5.30421C5.6193 5.30458 5.66131 5.31341 5.70036 5.33019C5.73942 5.34696 5.77474 5.37135 5.80427 5.40193L9.47167 9.06933C9.51639 9.11411 9.54684 9.17114 9.55916 9.23322C9.57148 9.29529 9.56513 9.35963 9.54089 9.4181C9.51666 9.47657 9.47564 9.52654 9.42302 9.5617C9.3704 9.59686 9.30853 9.61563 9.24524 9.61565Z" fill="#E2E2E2"/>
<path d="M5.57764 9.61565C5.51437 9.61559 5.45254 9.59679 5.39995 9.56161C5.34735 9.52643 5.30637 9.47646 5.28216 9.418C5.25796 9.35954 5.25162 9.29522 5.26395 9.23316C5.27628 9.17111 5.30672 9.11409 5.35143 9.06933L9.01862 5.40193C9.07864 5.34187 9.16006 5.30813 9.24497 5.30811C9.32987 5.30809 9.41131 5.34179 9.47136 5.40182C9.53141 5.46184 9.56516 5.54326 9.56518 5.62817C9.5652 5.71307 9.53149 5.79451 9.47147 5.85456L5.80407 9.52196C5.77433 9.55168 5.73902 9.57525 5.70017 9.59133C5.66132 9.6074 5.61969 9.61567 5.57764 9.61565Z" fill="#E2E2E2"/>
</svg>
