<svg width="15" height="15" viewBox="0 0 15 15" fill="none" xmlns="http://www.w3.org/2000/svg">
<path d="M7.5 15C3.36417 15 0 11.6355 0 7.5C0 3.36453 3.36417 0 7.5 0C11.6358 0 15 3.36453 15 7.5C15 11.6355 11.6358 15 7.5 15ZM7.5 1.08838C3.96459 1.08838 1.08838 3.96459 1.08838 7.5C1.08838 11.0354 3.96459 13.9116 7.5 13.9116C11.0354 13.9116 13.9116 11.0354 13.9116 7.5C13.9116 3.96459 11.0354 1.08838 7.5 1.08838Z" fill="#FF5A50"/>
<path d="M10.6168 11.2466C10.5453 11.2466 10.4746 11.2326 10.4085 11.2053C10.3425 11.1779 10.2825 11.1379 10.2319 11.0873L3.99768 4.85276C3.9457 4.80256 3.90424 4.74251 3.87572 4.67612C3.8472 4.60973 3.83219 4.53832 3.83156 4.46606C3.83094 4.3938 3.8447 4.32215 3.87207 4.25527C3.89943 4.18839 3.93984 4.12763 3.99093 4.07653C4.04203 4.02544 4.10279 3.98503 4.16967 3.95767C4.23654 3.93031 4.3082 3.91654 4.38046 3.91717C4.45272 3.91779 4.52412 3.93281 4.59052 3.96133C4.65691 3.98985 4.71696 4.0313 4.76716 4.08328L11.0017 10.3179C11.0778 10.394 11.1295 10.4909 11.1505 10.5965C11.1714 10.702 11.1606 10.8114 11.1194 10.9108C11.0782 11.0102 11.0085 11.0951 10.919 11.1549C10.8296 11.2147 10.7244 11.2466 10.6168 11.2466Z" fill="#FF5A50"/>
<path d="M4.38209 11.2466C4.27453 11.2465 4.16941 11.2145 4.08 11.1547C3.9906 11.0949 3.92092 11.01 3.87978 10.9106C3.83863 10.8112 3.82785 10.7019 3.84881 10.5964C3.86977 10.4909 3.92152 10.394 3.99753 10.3179L10.2317 4.08328C10.3338 3.98119 10.4722 3.92382 10.6165 3.92378C10.7609 3.92375 10.8993 3.98105 11.0014 4.08309C11.1035 4.18513 11.1609 4.32355 11.1609 4.46789C11.1609 4.61223 11.1036 4.75067 11.0016 4.85276L4.76701 11.0873C4.71645 11.1379 4.65644 11.1779 4.59039 11.2053C4.52435 11.2326 4.45356 11.2466 4.38209 11.2466Z" fill="#FF5A50"/>
</svg>
