<svg width="15" height="15" viewBox="0 0 15 15" fill="none" xmlns="http://www.w3.org/2000/svg">
<path d="M7.41176 11.8235C4.97892 11.8235 3 9.84439 3 7.41176C3 4.97914 4.97892 3 7.41176 3C9.84461 3 11.8235 4.97914 11.8235 7.41176C11.8235 9.84439 9.84461 11.8235 7.41176 11.8235ZM7.41176 3.64022C5.33211 3.64022 3.64022 5.33211 3.64022 7.41176C3.64022 9.49142 5.33211 11.1833 7.41176 11.1833C9.49142 11.1833 11.1833 9.49142 11.1833 7.41176C11.1833 5.33211 9.49142 3.64022 7.41176 3.64022Z" fill="#E2E2E2"/>
<path d="M9.24524 9.61562C9.2032 9.61564 9.16156 9.60737 9.12271 9.5913C9.08386 9.57522 9.04856 9.55165 9.01882 9.52193L5.35163 5.85453C5.32106 5.825 5.29667 5.78968 5.27989 5.75062C5.26312 5.71157 5.25429 5.66957 5.25392 5.62706C5.25355 5.58456 5.26165 5.54241 5.27774 5.50306C5.29384 5.46372 5.31761 5.42798 5.34766 5.39793C5.37772 5.36787 5.41346 5.3441 5.4528 5.32801C5.49214 5.31191 5.53429 5.30381 5.5768 5.30418C5.6193 5.30455 5.66131 5.31338 5.70036 5.33016C5.73942 5.34693 5.77474 5.37132 5.80427 5.40189L9.47167 9.0693C9.51639 9.11408 9.54684 9.17111 9.55916 9.23319C9.57148 9.29526 9.56513 9.3596 9.54089 9.41807C9.51666 9.47653 9.47564 9.52651 9.42302 9.56167C9.3704 9.59683 9.30853 9.6156 9.24524 9.61562Z" fill="#E2E2E2"/>
<path d="M5.57813 9.61562C5.51486 9.61556 5.45302 9.59676 5.40043 9.56158C5.34784 9.5264 5.30686 9.47643 5.28265 9.41797C5.25845 9.35951 5.25211 9.29519 5.26444 9.23313C5.27676 9.17108 5.30721 9.11406 5.35192 9.0693L9.01911 5.40189C9.07913 5.34184 9.16055 5.30809 9.24546 5.30807C9.33036 5.30805 9.4118 5.34176 9.47185 5.40179C9.5319 5.46181 9.56565 5.54323 9.56567 5.62814C9.56569 5.71304 9.53198 5.79448 9.47196 5.85453L5.80455 9.52193C5.77482 9.55165 5.73951 9.57522 5.70066 9.5913C5.66181 9.60737 5.62017 9.61564 5.57813 9.61562Z" fill="#E2E2E2"/>
</svg>
