<svg width="15" height="15" viewBox="0 0 15 15" fill="none" xmlns="http://www.w3.org/2000/svg">
<path d="M7.5 15C3.36417 15 0 11.6355 0 7.5C0 3.36453 3.36417 0 7.5 0C11.6358 0 15 3.36453 15 7.5C15 11.6355 11.6358 15 7.5 15ZM7.5 1.08838C3.96459 1.08838 1.08838 3.96459 1.08838 7.5C1.08838 11.0354 3.96459 13.9116 7.5 13.9116C11.0354 13.9116 13.9116 11.0354 13.9116 7.5C13.9116 3.96459 11.0354 1.08838 7.5 1.08838Z" fill="#FF5A50"/>
<path d="M10.6168 11.2467C10.5453 11.2467 10.4746 11.2327 10.4085 11.2054C10.3425 11.178 10.2825 11.138 10.2319 11.0874L3.99768 4.85285C3.9457 4.80265 3.90424 4.7426 3.87572 4.67621C3.8472 4.60982 3.83219 4.53841 3.83156 4.46615C3.83094 4.3939 3.8447 4.32224 3.87207 4.25536C3.89943 4.18848 3.93984 4.12772 3.99093 4.07663C4.04203 4.02553 4.10279 3.98512 4.16967 3.95776C4.23654 3.9304 4.3082 3.91663 4.38046 3.91726C4.45272 3.91788 4.52412 3.9329 4.59052 3.96142C4.65691 3.98994 4.71696 4.0314 4.76716 4.08337L11.0017 10.318C11.0778 10.3941 11.1295 10.491 11.1505 10.5966C11.1714 10.7021 11.1606 10.8115 11.1194 10.9109C11.0782 11.0103 11.0085 11.0952 10.919 11.155C10.8296 11.2148 10.7244 11.2467 10.6168 11.2467Z" fill="#FF5A50"/>
<path d="M4.38209 11.2467C4.27453 11.2466 4.16941 11.2146 4.08 11.1548C3.9906 11.095 3.92092 11.01 3.87978 10.9106C3.83863 10.8113 3.82785 10.7019 3.84881 10.5964C3.86977 10.4909 3.92152 10.394 3.99753 10.3179L10.2317 4.08332C10.3338 3.98123 10.4722 3.92386 10.6165 3.92383C10.7609 3.92379 10.8993 3.9811 11.0014 4.08314C11.1035 4.18518 11.1609 4.32359 11.1609 4.46793C11.1609 4.61227 11.1036 4.75072 11.0016 4.8528L4.76701 11.0874C4.71645 11.1379 4.65644 11.178 4.59039 11.2053C4.52435 11.2326 4.45356 11.2467 4.38209 11.2467Z" fill="#FF5A50"/>
</svg>
