<svg width="15" height="15" viewBox="0 0 15 15" fill="none" xmlns="http://www.w3.org/2000/svg">
<path d="M7.41176 11.8235C4.97892 11.8235 3 9.84439 3 7.41176C3 4.97914 4.97892 3 7.41176 3C9.84461 3 11.8235 4.97914 11.8235 7.41176C11.8235 9.84439 9.84461 11.8235 7.41176 11.8235ZM7.41176 3.64022C5.33211 3.64022 3.64022 5.33211 3.64022 7.41176C3.64022 9.49142 5.33211 11.1833 7.41176 11.1833C9.49142 11.1833 11.1833 9.49142 11.1833 7.41176C11.1833 5.33211 9.49142 3.64022 7.41176 3.64022Z" fill="#E2E2E2"/>
<path d="M9.24549 9.61562C9.20344 9.61564 9.16181 9.60737 9.12296 9.5913C9.08411 9.57522 9.0488 9.55165 9.01906 9.52193L5.35188 5.85453C5.3213 5.825 5.29692 5.78968 5.28014 5.75062C5.26336 5.71157 5.25453 5.66957 5.25416 5.62706C5.25379 5.58456 5.26189 5.54241 5.27799 5.50306C5.29408 5.46372 5.31785 5.42798 5.34791 5.39793C5.37796 5.36787 5.41371 5.3441 5.45305 5.32801C5.49239 5.31191 5.53454 5.30381 5.57704 5.30418C5.61955 5.30455 5.66155 5.31338 5.70061 5.33016C5.73966 5.34693 5.77498 5.37132 5.80451 5.40189L9.47191 9.0693C9.51664 9.11408 9.54708 9.17111 9.55941 9.23319C9.57173 9.29526 9.56537 9.3596 9.54114 9.41807C9.51691 9.47653 9.47589 9.52651 9.42326 9.56167C9.37064 9.59683 9.30878 9.6156 9.24549 9.61562Z" fill="#E2E2E2"/>
<path d="M5.57789 9.61562C5.51462 9.61556 5.45278 9.59676 5.40019 9.56158C5.3476 9.5264 5.30661 9.47643 5.28241 9.41797C5.2582 9.35951 5.25186 9.29519 5.26419 9.23313C5.27652 9.17108 5.30696 9.11406 5.35167 9.0693L9.01886 5.40189C9.07889 5.34184 9.16031 5.30809 9.24521 5.30807C9.33012 5.30805 9.41155 5.34176 9.4716 5.40179C9.53166 5.46181 9.5654 5.54323 9.56542 5.62814C9.56544 5.71304 9.53173 5.79448 9.47171 5.85453L5.80431 9.52193C5.77457 9.55165 5.73927 9.57522 5.70042 9.5913C5.66157 9.60737 5.61993 9.61564 5.57789 9.61562Z" fill="#E2E2E2"/>
</svg>
