<svg width="252" height="192" viewBox="0 0 252 192" fill="none" xmlns="http://www.w3.org/2000/svg">
<g filter="url(#filter0_dd_261_8810)">
<mask id="path-1-inside-1_261_8810" fill="white">
<path d="M16 23C16 14.7157 22.7157 8 31 8H221C229.284 8 236 14.7157 236 23V153C236 161.284 229.284 168 221 168H31C22.7157 168 16 161.284 16 153V23Z"/>
</mask>
<path d="M16 23C16 14.7157 22.7157 8 31 8H221C229.284 8 236 14.7157 236 23V153C236 161.284 229.284 168 221 168H31C22.7157 168 16 161.284 16 153V23Z" fill="white"/>
<path d="M31 9H221V7H31V9ZM235 23V153H237V23H235ZM221 167H31V169H221V167ZM17 153V23H15V153H17ZM31 167C23.268 167 17 160.732 17 153H15C15 161.837 22.1634 169 31 169V167ZM235 153C235 160.732 228.732 167 221 167V169C229.837 169 237 161.837 237 153H235ZM221 9C228.732 9 235 15.268 235 23H237C237 14.1634 229.837 7 221 7V9ZM31 7C22.1634 7 15 14.1634 15 23H17C17 15.268 23.268 9 31 9V7Z" fill="#FF5A50" mask="url(#path-1-inside-1_261_8810)"/>
</g>
<defs>
<filter id="filter0_dd_261_8810" x="0" y="0" width="252" height="192" filterUnits="userSpaceOnUse" color-interpolation-filters="sRGB">
<feFlood flood-opacity="0" result="BackgroundImageFix"/>
<feColorMatrix in="SourceAlpha" type="matrix" values="0 0 0 0 0 0 0 0 0 0 0 0 0 0 0 0 0 0 127 0" result="hardAlpha"/>
<feOffset dy="8"/>
<feGaussianBlur stdDeviation="8"/>
<feColorMatrix type="matrix" values="0 0 0 0 1 0 0 0 0 0.352941 0 0 0 0 0.313726 0 0 0 0.08 0"/>
<feBlend mode="normal" in2="BackgroundImageFix" result="effect1_dropShadow_261_8810"/>
<feColorMatrix in="SourceAlpha" type="matrix" values="0 0 0 0 0 0 0 0 0 0 0 0 0 0 0 0 0 0 127 0" result="hardAlpha"/>
<feOffset/>
<feGaussianBlur stdDeviation="2"/>
<feColorMatrix type="matrix" values="0 0 0 0 1 0 0 0 0 0.352941 0 0 0 0 0.313726 0 0 0 0.04 0"/>
<feBlend mode="normal" in2="effect1_dropShadow_261_8810" result="effect2_dropShadow_261_8810"/>
<feBlend mode="normal" in="SourceGraphic" in2="effect2_dropShadow_261_8810" result="shape"/>
</filter>
</defs>
</svg>
