<svg width="252" height="182" viewBox="0 0 252 182" fill="none" xmlns="http://www.w3.org/2000/svg">
<g filter="url(#filter0_dd_261_7265)">
<mask id="path-1-inside-1_261_7265" fill="white">
<path d="M16 23C16 14.7157 22.7157 8 31 8H221C229.284 8 236 14.7157 236 23V143C236 151.284 229.284 158 221 158H31C22.7157 158 16 151.284 16 143V23Z"/>
</mask>
<path d="M16 23C16 14.7157 22.7157 8 31 8H221C229.284 8 236 14.7157 236 23V143C236 151.284 229.284 158 221 158H31C22.7157 158 16 151.284 16 143V23Z" fill="white"/>
<path d="M31 9H221V7H31V9ZM235 23V143H237V23H235ZM221 157H31V159H221V157ZM17 143V23H15V143H17ZM31 157C23.268 157 17 150.732 17 143H15C15 151.837 22.1634 159 31 159V157ZM235 143C235 150.732 228.732 157 221 157V159C229.837 159 237 151.837 237 143H235ZM221 9C228.732 9 235 15.268 235 23H237C237 14.1634 229.837 7 221 7V9ZM31 7C22.1634 7 15 14.1634 15 23H17C17 15.268 23.268 9 31 9V7Z" fill="#FF5A50" mask="url(#path-1-inside-1_261_7265)"/>
</g>
<defs>
<filter id="filter0_dd_261_7265" x="0" y="0" width="252" height="182" filterUnits="userSpaceOnUse" color-interpolation-filters="sRGB">
<feFlood flood-opacity="0" result="BackgroundImageFix"/>
<feColorMatrix in="SourceAlpha" type="matrix" values="0 0 0 0 0 0 0 0 0 0 0 0 0 0 0 0 0 0 127 0" result="hardAlpha"/>
<feOffset dy="8"/>
<feGaussianBlur stdDeviation="8"/>
<feColorMatrix type="matrix" values="0 0 0 0 1 0 0 0 0 0.352941 0 0 0 0 0.313726 0 0 0 0.08 0"/>
<feBlend mode="normal" in2="BackgroundImageFix" result="effect1_dropShadow_261_7265"/>
<feColorMatrix in="SourceAlpha" type="matrix" values="0 0 0 0 0 0 0 0 0 0 0 0 0 0 0 0 0 0 127 0" result="hardAlpha"/>
<feOffset/>
<feGaussianBlur stdDeviation="2"/>
<feColorMatrix type="matrix" values="0 0 0 0 1 0 0 0 0 0.352941 0 0 0 0 0.313726 0 0 0 0.04 0"/>
<feBlend mode="normal" in2="effect1_dropShadow_261_7265" result="effect2_dropShadow_261_7265"/>
<feBlend mode="normal" in="SourceGraphic" in2="effect2_dropShadow_261_7265" result="shape"/>
</filter>
</defs>
</svg>
