<svg width="252" height="105" viewBox="0 0 252 105" fill="none" xmlns="http://www.w3.org/2000/svg">
<g filter="url(#filter0_dd_261_4460)">
<mask id="path-1-inside-1_261_4460" fill="white">
<path d="M16 23C16 14.7157 22.7157 8 31 8H221C229.284 8 236 14.7157 236 23V66C236 74.2843 229.284 81 221 81H31C22.7157 81 16 74.2843 16 66V23Z"/>
</mask>
<path d="M16 23C16 14.7157 22.7157 8 31 8H221C229.284 8 236 14.7157 236 23V66C236 74.2843 229.284 81 221 81H31C22.7157 81 16 74.2843 16 66V23Z" fill="white"/>
<path d="M31 9H221V7H31V9ZM235 23V66H237V23H235ZM221 80H31V82H221V80ZM17 66V23H15V66H17ZM31 80C23.268 80 17 73.732 17 66H15C15 74.8366 22.1634 82 31 82V80ZM235 66C235 73.732 228.732 80 221 80V82C229.837 82 237 74.8366 237 66H235ZM221 9C228.732 9 235 15.268 235 23H237C237 14.1634 229.837 7 221 7V9ZM31 7C22.1634 7 15 14.1634 15 23H17C17 15.268 23.268 9 31 9V7Z" fill="#FF5A50" mask="url(#path-1-inside-1_261_4460)"/>
</g>
<defs>
<filter id="filter0_dd_261_4460" x="0" y="0" width="252" height="105" filterUnits="userSpaceOnUse" color-interpolation-filters="sRGB">
<feFlood flood-opacity="0" result="BackgroundImageFix"/>
<feColorMatrix in="SourceAlpha" type="matrix" values="0 0 0 0 0 0 0 0 0 0 0 0 0 0 0 0 0 0 127 0" result="hardAlpha"/>
<feOffset dy="8"/>
<feGaussianBlur stdDeviation="8"/>
<feColorMatrix type="matrix" values="0 0 0 0 1 0 0 0 0 0.352941 0 0 0 0 0.313726 0 0 0 0.08 0"/>
<feBlend mode="normal" in2="BackgroundImageFix" result="effect1_dropShadow_261_4460"/>
<feColorMatrix in="SourceAlpha" type="matrix" values="0 0 0 0 0 0 0 0 0 0 0 0 0 0 0 0 0 0 127 0" result="hardAlpha"/>
<feOffset/>
<feGaussianBlur stdDeviation="2"/>
<feColorMatrix type="matrix" values="0 0 0 0 1 0 0 0 0 0.352941 0 0 0 0 0.313726 0 0 0 0.04 0"/>
<feBlend mode="normal" in2="effect1_dropShadow_261_4460" result="effect2_dropShadow_261_4460"/>
<feBlend mode="normal" in="SourceGraphic" in2="effect2_dropShadow_261_4460" result="shape"/>
</filter>
</defs>
</svg>
