<svg width="312" height="217" viewBox="0 0 312 217" fill="none" xmlns="http://www.w3.org/2000/svg">
<g filter="url(#filter0_dd_261_3388)">
<mask id="path-1-inside-1_261_3388" fill="white">
<path d="M16 23C16 14.7157 22.7157 8 31 8H281C289.284 8 296 14.7157 296 23V178C296 186.284 289.284 193 281 193H31C22.7157 193 16 186.284 16 178V23Z"/>
</mask>
<path d="M16 23C16 14.7157 22.7157 8 31 8H281C289.284 8 296 14.7157 296 23V178C296 186.284 289.284 193 281 193H31C22.7157 193 16 186.284 16 178V23Z" fill="white"/>
<path d="M31 9H281V7H31V9ZM295 23V178H297V23H295ZM281 192H31V194H281V192ZM17 178V23H15V178H17ZM31 192C23.268 192 17 185.732 17 178H15C15 186.837 22.1634 194 31 194V192ZM295 178C295 185.732 288.732 192 281 192V194C289.837 194 297 186.837 297 178H295ZM281 9C288.732 9 295 15.268 295 23H297C297 14.1634 289.837 7 281 7V9ZM31 7C22.1634 7 15 14.1634 15 23H17C17 15.268 23.268 9 31 9V7Z" fill="#FF5A50" mask="url(#path-1-inside-1_261_3388)"/>
</g>
<defs>
<filter id="filter0_dd_261_3388" x="0" y="0" width="312" height="217" filterUnits="userSpaceOnUse" color-interpolation-filters="sRGB">
<feFlood flood-opacity="0" result="BackgroundImageFix"/>
<feColorMatrix in="SourceAlpha" type="matrix" values="0 0 0 0 0 0 0 0 0 0 0 0 0 0 0 0 0 0 127 0" result="hardAlpha"/>
<feOffset dy="8"/>
<feGaussianBlur stdDeviation="8"/>
<feColorMatrix type="matrix" values="0 0 0 0 1 0 0 0 0 0.352941 0 0 0 0 0.313726 0 0 0 0.08 0"/>
<feBlend mode="normal" in2="BackgroundImageFix" result="effect1_dropShadow_261_3388"/>
<feColorMatrix in="SourceAlpha" type="matrix" values="0 0 0 0 0 0 0 0 0 0 0 0 0 0 0 0 0 0 127 0" result="hardAlpha"/>
<feOffset/>
<feGaussianBlur stdDeviation="2"/>
<feColorMatrix type="matrix" values="0 0 0 0 1 0 0 0 0 0.352941 0 0 0 0 0.313726 0 0 0 0.04 0"/>
<feBlend mode="normal" in2="effect1_dropShadow_261_3388" result="effect2_dropShadow_261_3388"/>
<feBlend mode="normal" in="SourceGraphic" in2="effect2_dropShadow_261_3388" result="shape"/>
</filter>
</defs>
</svg>
