<svg width="372" height="217" viewBox="0 0 372 217" fill="none" xmlns="http://www.w3.org/2000/svg">
<g filter="url(#filter0_dd_268_11523)">
<mask id="path-1-inside-1_268_11523" fill="white">
<path d="M16 23C16 14.7157 22.7157 8 31 8H341C349.284 8 356 14.7157 356 23V178C356 186.284 349.284 193 341 193H31C22.7157 193 16 186.284 16 178V23Z"/>
</mask>
<path d="M16 23C16 14.7157 22.7157 8 31 8H341C349.284 8 356 14.7157 356 23V178C356 186.284 349.284 193 341 193H31C22.7157 193 16 186.284 16 178V23Z" fill="white"/>
<path d="M31 9H341V7H31V9ZM355 23V178H357V23H355ZM341 192H31V194H341V192ZM17 178V23H15V178H17ZM31 192C23.268 192 17 185.732 17 178H15C15 186.837 22.1634 194 31 194V192ZM355 178C355 185.732 348.732 192 341 192V194C349.837 194 357 186.837 357 178H355ZM341 9C348.732 9 355 15.268 355 23H357C357 14.1634 349.837 7 341 7V9ZM31 7C22.1634 7 15 14.1634 15 23H17C17 15.268 23.268 9 31 9V7Z" fill="#FF5A50" mask="url(#path-1-inside-1_268_11523)"/>
</g>
<defs>
<filter id="filter0_dd_268_11523" x="0" y="0" width="372" height="217" filterUnits="userSpaceOnUse" color-interpolation-filters="sRGB">
<feFlood flood-opacity="0" result="BackgroundImageFix"/>
<feColorMatrix in="SourceAlpha" type="matrix" values="0 0 0 0 0 0 0 0 0 0 0 0 0 0 0 0 0 0 127 0" result="hardAlpha"/>
<feOffset dy="8"/>
<feGaussianBlur stdDeviation="8"/>
<feColorMatrix type="matrix" values="0 0 0 0 1 0 0 0 0 0.352941 0 0 0 0 0.313726 0 0 0 0.08 0"/>
<feBlend mode="normal" in2="BackgroundImageFix" result="effect1_dropShadow_268_11523"/>
<feColorMatrix in="SourceAlpha" type="matrix" values="0 0 0 0 0 0 0 0 0 0 0 0 0 0 0 0 0 0 127 0" result="hardAlpha"/>
<feOffset/>
<feGaussianBlur stdDeviation="2"/>
<feColorMatrix type="matrix" values="0 0 0 0 1 0 0 0 0 0.352941 0 0 0 0 0.313726 0 0 0 0.04 0"/>
<feBlend mode="normal" in2="effect1_dropShadow_268_11523" result="effect2_dropShadow_268_11523"/>
<feBlend mode="normal" in="SourceGraphic" in2="effect2_dropShadow_268_11523" result="shape"/>
</filter>
</defs>
</svg>
