<svg width="19" height="30" viewBox="0 0 19 30" fill="none" xmlns="http://www.w3.org/2000/svg">
<g clip-path="url(#clip0_261_2022)">
<path d="M6.0994 18.7L4.0994 21.4C3.4994 22.2 3.5994 23.2 4.1994 24L7.9994 28.1C8.3994 28.5 8.8994 28.7 9.4994 28.7C10.5994 28.7 12.3994 28.7 14.0994 28.7C16.4994 28.7 18.0994 26.7 18.0994 24.7C18.0994 24.7 18.0994 17.8 18.0994 16.1" stroke="black" stroke-width="1.5" stroke-linecap="round" stroke-linejoin="round"/>
<path d="M15.0996 16.7C15.0996 16.7 15.0996 16.6 15.0996 16.1C15.0996 13.8 18.0996 13.8 18.0996 16.1" stroke="black" stroke-width="1.5" stroke-linecap="round" stroke-linejoin="round"/>
<path d="M12.0996 16.7C12.0996 16.7 12.0996 15.9 12.0996 15C12.0996 12.7 15.0996 12.7 15.0996 15C15.0996 15.2 15.0996 15.9 15.0996 16.1C15.0996 16.5 15.0996 16.7 15.0996 16.7" stroke="black" stroke-width="1.5" stroke-linecap="round" stroke-linejoin="round"/>
<path d="M9.09961 16.7C9.09961 16.7 9.09961 15.3 9.09961 14.2C9.09961 11.9 12.0996 11.9 12.0996 14.2C12.0996 14.2 12.0996 14.8 12.0996 15C12.0996 15.9 12.0996 16.7 12.0996 16.7" stroke="black" stroke-width="1.5" stroke-linecap="round" stroke-linejoin="round"/>
<path d="M9.09961 16.7C9.09961 16.7 9.09961 15.3 9.09961 14.2C9.09961 13 9.09961 11.4 9.09961 10.2C9.09961 9.4 8.39961 8.7 7.59961 8.7C6.79961 8.7 6.09961 9.4 6.09961 10.2V18.7V21.7" stroke="black" stroke-width="1.5" stroke-linecap="round" stroke-linejoin="round"/>
<path d="M0.799805 4.2L4.3998 7.2" stroke="black" stroke-width="1.5" stroke-linecap="round" stroke-linejoin="round"/>
<path d="M7.59961 0.800003V5.5" stroke="black" stroke-width="1.5" stroke-linecap="round" stroke-linejoin="round"/>
<path d="M14.4994 4.2L10.8994 7.2" stroke="black" stroke-width="1.5" stroke-linecap="round" stroke-linejoin="round"/>
</g>
<defs>
<clipPath id="clip0_261_2022">
<rect width="18.9" height="29.5" fill="white"/>
</clipPath>
</defs>
</svg>
