<svg width="19" height="30" viewBox="0 0 19 30" fill="none" xmlns="http://www.w3.org/2000/svg">
<g clip-path="url(#clip0_261_1948)">
<path d="M6.0994 18.7001L4.0994 21.4001C3.4994 22.2001 3.5994 23.2001 4.1994 24.0001L7.9994 28.1001C8.3994 28.5001 8.8994 28.7001 9.4994 28.7001C10.5994 28.7001 12.3994 28.7001 14.0994 28.7001C16.4994 28.7001 18.0994 26.7001 18.0994 24.7001C18.0994 24.7001 18.0994 17.8001 18.0994 16.1001" stroke="black" stroke-width="1.5" stroke-linecap="round" stroke-linejoin="round"/>
<path d="M15.0996 16.7001C15.0996 16.7001 15.0996 16.6001 15.0996 16.1001C15.0996 13.8001 18.0996 13.8001 18.0996 16.1001" stroke="black" stroke-width="1.5" stroke-linecap="round" stroke-linejoin="round"/>
<path d="M12.0996 16.7C12.0996 16.7 12.0996 15.9 12.0996 15C12.0996 12.7 15.0996 12.7 15.0996 15C15.0996 15.2 15.0996 15.9 15.0996 16.1C15.0996 16.5 15.0996 16.7 15.0996 16.7" stroke="black" stroke-width="1.5" stroke-linecap="round" stroke-linejoin="round"/>
<path d="M9.09961 16.7001C9.09961 16.7001 9.09961 15.3001 9.09961 14.2001C9.09961 11.9001 12.0996 11.9001 12.0996 14.2001C12.0996 14.2001 12.0996 14.8001 12.0996 15.0001C12.0996 15.9001 12.0996 16.7001 12.0996 16.7001" stroke="black" stroke-width="1.5" stroke-linecap="round" stroke-linejoin="round"/>
<path d="M9.09961 16.7001C9.09961 16.7001 9.09961 15.3001 9.09961 14.2001C9.09961 13.0001 9.09961 11.4001 9.09961 10.2001C9.09961 9.40007 8.39961 8.70007 7.59961 8.70007C6.79961 8.70007 6.09961 9.40007 6.09961 10.2001V18.7001V21.7001" stroke="black" stroke-width="1.5" stroke-linecap="round" stroke-linejoin="round"/>
<path d="M0.799805 4.20007L4.3998 7.20007" stroke="black" stroke-width="1.5" stroke-linecap="round" stroke-linejoin="round"/>
<path d="M7.59961 0.800049V5.50005" stroke="black" stroke-width="1.5" stroke-linecap="round" stroke-linejoin="round"/>
<path d="M14.4994 4.20007L10.8994 7.20007" stroke="black" stroke-width="1.5" stroke-linecap="round" stroke-linejoin="round"/>
</g>
<defs>
<clipPath id="clip0_261_1948">
<rect width="18.9" height="29.5" fill="white"/>
</clipPath>
</defs>
</svg>
