<svg width="340" height="101" viewBox="0 0 340 101" fill="none" xmlns="http://www.w3.org/2000/svg">
<mask id="path-1-inside-1_268_11059" fill="white">
<path fill-rule="evenodd" clip-rule="evenodd" d="M171.344 1.21897C170.581 0.52727 169.419 0.527271 168.656 1.21897L157.876 10.9997H15C6.71573 10.9997 0 17.7155 0 25.9997V85.9997C0 94.284 6.71572 101 15 101H325C333.284 101 340 94.284 340 85.9997V25.9997C340 17.7155 333.284 10.9997 325 10.9997H182.124L171.344 1.21897Z"/>
</mask>
<path fill-rule="evenodd" clip-rule="evenodd" d="M171.344 1.21897C170.581 0.52727 169.419 0.527271 168.656 1.21897L157.876 10.9997H15C6.71573 10.9997 0 17.7155 0 25.9997V85.9997C0 94.284 6.71572 101 15 101H325C333.284 101 340 94.284 340 85.9997V25.9997C340 17.7155 333.284 10.9997 325 10.9997H182.124L171.344 1.21897Z" fill="white"/>
<path d="M168.656 1.21897L167.984 0.478355V0.478357L168.656 1.21897ZM171.344 1.21897L170.672 1.95958V1.95958L171.344 1.21897ZM157.876 10.9997V11.9997H158.262L158.548 11.7403L157.876 10.9997ZM182.124 10.9997L181.452 11.7403L181.738 11.9997H182.124V10.9997ZM169.328 1.95959C169.709 1.61373 170.291 1.61374 170.672 1.95958L172.016 0.478361C170.872 -0.559198 169.128 -0.559186 167.984 0.478355L169.328 1.95959ZM158.548 11.7403L169.328 1.95958L167.984 0.478357L157.204 10.2591L158.548 11.7403ZM15 11.9997H157.876V9.99973H15V11.9997ZM1 25.9997C1 18.2677 7.26801 11.9997 15 11.9997V9.99973C6.16344 9.99973 -1 17.1632 -1 25.9997H1ZM1 85.9997V25.9997H-1V85.9997H1ZM15 99.9997C7.26801 99.9997 1 93.7317 1 85.9997H-1C-1 94.8363 6.16344 102 15 102V99.9997ZM325 99.9997H15V102H325V99.9997ZM339 85.9997C339 93.7317 332.732 99.9997 325 99.9997V102C333.837 102 341 94.8363 341 85.9997H339ZM339 25.9997V85.9997H341V25.9997H339ZM325 11.9997C332.732 11.9997 339 18.2677 339 25.9997H341C341 17.1632 333.837 9.99973 325 9.99973V11.9997ZM182.124 11.9997H325V9.99973H182.124V11.9997ZM170.672 1.95958L181.452 11.7403L182.796 10.2591L172.016 0.478356L170.672 1.95958Z" fill="#E2E2E2" mask="url(#path-1-inside-1_268_11059)"/>
</svg>
