<svg width="240" height="25" viewBox="0 0 240 25" fill="none" xmlns="http://www.w3.org/2000/svg">
<path d="M0.500013 24.5C0.500355 20.0687 0.509413 16.7409 0.749161 14.0956C0.997221 11.3587 1.48908 9.4016 2.44263 7.75C3.71527 5.54572 5.54572 3.71527 7.75 2.44263C9.4016 1.48908 11.3587 0.997221 14.0956 0.749161C16.8394 0.500479 20.3177 0.5 25 0.5H215C219.682 0.5 223.161 0.500479 225.904 0.749161C228.641 0.997221 230.598 1.48908 232.25 2.44263C234.454 3.71527 236.285 5.54572 237.557 7.75C238.511 9.4016 239.003 11.3587 239.251 14.0956C239.491 16.7409 239.5 20.0687 239.5 24.5H0.500013Z" fill="white" stroke="#FF5A50"/>
</svg>
