<svg width="49" height="20" viewBox="0 0 49 20" fill="none" xmlns="http://www.w3.org/2000/svg">
<path d="M0.5 10C0.5 8.12157 0.500479 6.74617 0.59844 5.66532C0.695778 4.59135 0.886195 3.85737 1.23686 3.25C1.71959 2.41389 2.41389 1.71959 3.25 1.23686C3.85737 0.886195 4.59135 0.695778 5.66532 0.59844C6.74617 0.500479 8.12157 0.5 10 0.5H39C40.8784 0.5 42.2538 0.500479 43.3347 0.59844C44.4087 0.695778 45.1426 0.886195 45.75 1.23686C46.5861 1.71959 47.2804 2.41389 47.7631 3.25C48.1138 3.85737 48.3042 4.59135 48.4016 5.66532C48.4995 6.74617 48.5 8.12157 48.5 10C48.5 11.8784 48.4995 13.2538 48.4016 14.3347C48.3042 15.4087 48.1138 16.1426 47.7631 16.75C47.2804 17.5861 46.5861 18.2804 45.75 18.7631C45.1426 19.1138 44.4087 19.3042 43.3347 19.4016C42.2538 19.4995 40.8784 19.5 39 19.5H10C8.12157 19.5 6.74617 19.4995 5.66532 19.4016C4.59135 19.3042 3.85737 19.1138 3.25 18.7631C2.41389 18.2804 1.71959 17.5861 1.23686 16.75C0.886195 16.1426 0.695778 15.4087 0.59844 14.3347C0.500479 13.2538 0.5 11.8784 0.5 10Z" fill="white" stroke="#E2E2E2"/>
</svg>
