<svg width="30" height="30" viewBox="0 0 30 30" fill="none" xmlns="http://www.w3.org/2000/svg">
<circle r="14.5" transform="matrix(-1 0 0 1 15 15)" fill="white" stroke="#E2E2E2"/>
<path d="M13.1975 21.6C13.2852 21.6005 13.3721 21.5837 13.4533 21.5505C13.5345 21.5174 13.6084 21.4685 13.6707 21.4067L19.0028 16.0746C19.0653 16.0126 19.1149 15.9389 19.1487 15.8577C19.1825 15.7765 19.2 15.6894 19.2 15.6014C19.2 15.5134 19.1825 15.4263 19.1487 15.345C19.1149 15.2638 19.0653 15.1901 19.0028 15.1281L13.6707 9.79602C13.5452 9.67052 13.3749 9.60001 13.1975 9.60001C13.02 9.60001 12.8497 9.67052 12.7242 9.79602C12.5987 9.92153 12.5282 10.0918 12.5282 10.2692C12.5282 10.4467 12.5987 10.617 12.7242 10.7425L17.5898 15.6014L12.7242 20.4603C12.6618 20.5222 12.6122 20.5959 12.5783 20.6772C12.5445 20.7584 12.5271 20.8455 12.5271 20.9335C12.5271 21.0215 12.5445 21.1086 12.5783 21.1898C12.6122 21.271 12.6618 21.3447 12.7242 21.4067C12.7865 21.4685 12.8604 21.5174 12.9416 21.5505C13.0228 21.5837 13.1097 21.6005 13.1975 21.6Z" fill="#161616"/>
</svg>
