<svg width="30" height="30" viewBox="0 0 30 30" fill="none" xmlns="http://www.w3.org/2000/svg">
<circle r="14.5" transform="matrix(-1 0 0 1 15 15)" fill="white" stroke="#E2E2E2"/>
<path d="M13.1975 21.6C13.2852 21.6005 13.3721 21.5837 13.4533 21.5505C13.5345 21.5173 13.6084 21.4684 13.6707 21.4067L19.0028 16.0746C19.0653 16.0126 19.1149 15.9389 19.1487 15.8577C19.1825 15.7764 19.2 15.6893 19.2 15.6013C19.2 15.5133 19.1825 15.4262 19.1487 15.345C19.1149 15.2638 19.0653 15.1901 19.0028 15.1281L13.6707 9.79599C13.5452 9.67048 13.3749 9.59998 13.1975 9.59998C13.02 9.59998 12.8497 9.67048 12.7242 9.79599C12.5987 9.9215 12.5282 10.0917 12.5282 10.2692C12.5282 10.4467 12.5987 10.6169 12.7242 10.7424L17.5898 15.6013L12.7242 20.4602C12.6618 20.5222 12.6122 20.5959 12.5783 20.6771C12.5445 20.7583 12.5271 20.8455 12.5271 20.9334C12.5271 21.0214 12.5445 21.1086 12.5783 21.1898C12.6122 21.271 12.6618 21.3447 12.7242 21.4067C12.7865 21.4684 12.8604 21.5173 12.9416 21.5505C13.0228 21.5837 13.1097 21.6005 13.1975 21.6Z" fill="#161616"/>
</svg>
