<svg width="30" height="30" viewBox="0 0 30 30" fill="none" xmlns="http://www.w3.org/2000/svg">
<circle r="14.5" transform="matrix(-1 0 0 1 15 15)" fill="white" stroke="#E2E2E2"/>
<path d="M13.1975 21.6001C13.2852 21.6006 13.3721 21.5838 13.4533 21.5506C13.5345 21.5174 13.6084 21.4686 13.6707 21.4068L19.0028 16.0747C19.0653 16.0127 19.1149 15.939 19.1487 15.8578C19.1825 15.7766 19.2 15.6894 19.2 15.6015C19.2 15.5135 19.1825 15.4264 19.1487 15.3451C19.1149 15.2639 19.0653 15.1902 19.0028 15.1282L13.6707 9.79611C13.5452 9.67061 13.3749 9.6001 13.1975 9.6001C13.02 9.6001 12.8497 9.67061 12.7242 9.79611C12.5987 9.92162 12.5282 10.0918 12.5282 10.2693C12.5282 10.4468 12.5987 10.6171 12.7242 10.7426L17.5898 15.6015L12.7242 20.4603C12.6618 20.5223 12.6122 20.596 12.5783 20.6772C12.5445 20.7585 12.5271 20.8456 12.5271 20.9336C12.5271 21.0216 12.5445 21.1087 12.5783 21.1899C12.6122 21.2711 12.6618 21.3448 12.7242 21.4068C12.7865 21.4686 12.8604 21.5174 12.9416 21.5506C13.0228 21.5838 13.1097 21.6006 13.1975 21.6001Z" fill="#161616"/>
</svg>
