<svg width="20" height="20" viewBox="0 0 20 20" fill="none" xmlns="http://www.w3.org/2000/svg">
<path d="M0 13.836C0.236 13.124 0.812 12.772 1.436 12.472C1.736 12.328 2.044 12.216 2.36 12.116C2.628 12.028 2.868 12.132 2.948 12.368C3.028 12.596 2.896 12.812 2.628 12.9C2.196 13.048 1.772 13.204 1.38 13.444C1.24 13.528 1.108 13.624 0.996 13.744C0.776 13.976 0.776 14.152 1 14.384C1.184 14.572 1.408 14.704 1.644 14.82C2.46 15.228 3.332 15.448 4.22 15.628C5.812 15.944 7.424 16.084 9.048 16.132C9.064 16.132 9.084 16.128 9.14 16.124C8.912 15.952 8.704 15.8 8.504 15.64C8.372 15.536 8.312 15.396 8.348 15.228C8.384 15.068 8.48 14.964 8.636 14.912C8.78 14.864 8.908 14.904 9.02 14.988C9.56 15.392 10.104 15.796 10.64 16.208C10.904 16.412 10.904 16.712 10.636 16.916C10.104 17.32 9.564 17.72 9.028 18.12C8.816 18.276 8.564 18.248 8.42 18.06C8.268 17.864 8.316 17.62 8.536 17.448C8.732 17.296 8.928 17.148 9.124 16.996C9.128 16.996 9.124 16.984 9.124 16.972C8.556 16.94 7.984 16.924 7.42 16.88C5.572 16.732 3.736 16.496 1.976 15.864C1.764 15.788 1.556 15.696 1.352 15.596C0.76 15.316 0.244 14.952 0 14.304C0 14.148 0 13.992 0 13.836Z" fill="#161616"/>
<path d="M19.9999 14.268C19.7879 14.972 19.2279 15.332 18.6159 15.628C17.6839 16.076 16.6839 16.304 15.6719 16.492C14.8279 16.652 13.9759 16.752 13.1199 16.836C13.0559 16.844 12.9919 16.848 12.9239 16.848C12.6839 16.848 12.5039 16.688 12.4919 16.464C12.4799 16.232 12.6279 16.052 12.8679 16.024C13.4279 15.956 13.9919 15.908 14.5519 15.828C15.7999 15.652 17.0359 15.408 18.1999 14.888C18.4599 14.772 18.7119 14.632 18.9279 14.44C19.2279 14.172 19.2359 13.96 18.9399 13.692C18.5519 13.34 18.0719 13.156 17.5879 12.98C17.4839 12.94 17.3759 12.912 17.2759 12.868C17.0719 12.776 16.9799 12.572 17.0479 12.368C17.1159 12.156 17.3239 12.024 17.5399 12.088C18.2119 12.296 18.8639 12.548 19.4199 13C19.7039 13.232 19.8959 13.52 19.9959 13.872C19.9999 14.004 19.9999 14.136 19.9999 14.268Z" fill="#161616"/>
<path d="M15.5522 3.8641C13.7802 3.1841 12.0042 2.5041 10.2322 1.8241C10.0602 1.7561 9.90816 1.7681 9.74416 1.8321C7.98416 2.5121 6.22016 3.1881 4.46016 3.8641C4.26016 3.9401 4.16016 4.0841 4.16016 4.2961V7.6161H4.16816C4.16816 8.6841 4.16816 9.7521 4.16816 10.8201C4.16816 11.1601 4.22816 11.2481 4.54816 11.3681C6.30416 12.0441 8.05616 12.7201 9.81216 13.4001C9.94016 13.4481 10.0602 13.4481 10.1882 13.4001C11.9242 12.7321 13.6642 12.0601 15.4002 11.3921C15.7762 11.2481 15.8282 11.1761 15.8282 10.7761C15.8322 8.6201 15.8322 6.4681 15.8362 4.3121C15.8402 4.0961 15.7442 3.9401 15.5522 3.8641ZM9.42416 12.3521C7.99216 11.7961 6.55616 11.2481 5.12016 10.6961C5.04416 10.6681 4.99216 10.6401 4.99616 10.5361C5.00016 8.6561 5.00016 6.7761 5.00016 4.8721C6.50816 5.4521 7.99216 6.0241 9.47616 6.5921C9.60016 6.6401 9.58016 6.7201 9.58016 6.8081C9.58016 7.9841 9.58016 9.1641 9.58016 10.3401C9.58016 10.9721 9.57616 11.6041 9.58416 12.2321C9.58416 12.3601 9.57216 12.4081 9.42416 12.3521ZM10.1602 5.8441C10.0682 5.8801 9.98416 5.9001 9.88016 5.8601C8.53616 5.3401 7.19616 4.8241 5.85216 4.3081C5.82816 4.3001 5.80816 4.2881 5.75616 4.2641C6.16416 4.1081 6.55216 3.9601 6.93616 3.8121C7.90416 3.4401 8.87216 3.0681 9.84016 2.6921C9.94816 2.6481 10.0442 2.6441 10.1562 2.6881C11.4802 3.2001 12.8082 3.7081 14.1322 4.2201C14.1602 4.2321 14.1882 4.2481 14.2402 4.2761C13.5522 4.5401 12.8922 4.7921 12.2282 5.0481C11.5402 5.3121 10.8482 5.5761 10.1602 5.8441ZM15.0042 10.4641C15.0042 10.6001 14.9722 10.6641 14.8362 10.7161C13.4122 11.2561 11.9922 11.8081 10.5682 12.3561C10.5282 12.3721 10.4842 12.3841 10.4282 12.4001C10.4242 12.3401 10.4202 12.2881 10.4202 12.2401C10.4202 10.4321 10.4202 8.6201 10.4202 6.8121C10.4202 6.7241 10.4082 6.6441 10.5282 6.5961C12.0122 6.0321 13.4922 5.4601 14.9802 4.8881C15.0202 4.9521 15.0002 5.0201 15.0002 5.0801C15.0002 6.8721 15.0002 8.6681 15.0042 10.4641Z" fill="#161616"/>
</svg>
