<svg width="20" height="20" viewBox="0 0 20 20" fill="none" xmlns="http://www.w3.org/2000/svg">
<path d="M0 13.836C0.236 13.124 0.812 12.772 1.436 12.472C1.736 12.328 2.044 12.216 2.36 12.116C2.628 12.028 2.868 12.132 2.948 12.368C3.028 12.596 2.896 12.812 2.628 12.9C2.196 13.048 1.772 13.204 1.38 13.444C1.24 13.528 1.108 13.624 0.996 13.744C0.776 13.976 0.776 14.152 1 14.384C1.184 14.572 1.408 14.704 1.644 14.82C2.46 15.228 3.332 15.448 4.22 15.628C5.812 15.944 7.424 16.084 9.048 16.132C9.064 16.132 9.084 16.128 9.14 16.124C8.912 15.952 8.704 15.8 8.504 15.64C8.372 15.536 8.312 15.396 8.348 15.228C8.384 15.068 8.48 14.964 8.636 14.912C8.78 14.864 8.908 14.904 9.02 14.988C9.56 15.392 10.104 15.796 10.64 16.208C10.904 16.412 10.904 16.712 10.636 16.916C10.104 17.32 9.564 17.72 9.028 18.12C8.816 18.276 8.564 18.248 8.42 18.06C8.268 17.864 8.316 17.62 8.536 17.448C8.732 17.296 8.928 17.148 9.124 16.996C9.128 16.996 9.124 16.984 9.124 16.972C8.556 16.94 7.984 16.924 7.42 16.88C5.572 16.732 3.736 16.496 1.976 15.864C1.764 15.788 1.556 15.696 1.352 15.596C0.76 15.316 0.244 14.952 0 14.304C0 14.148 0 13.992 0 13.836Z" fill="#161616"/>
<path d="M19.9999 14.2678C19.7879 14.9718 19.2279 15.3318 18.6159 15.6278C17.6839 16.0758 16.6839 16.3038 15.6719 16.4918C14.8279 16.6518 13.9759 16.7518 13.1199 16.8358C13.0559 16.8438 12.9919 16.8478 12.9239 16.8478C12.6839 16.8478 12.5039 16.6878 12.4919 16.4638C12.4799 16.2318 12.6279 16.0518 12.8679 16.0238C13.4279 15.9558 13.9919 15.9078 14.5519 15.8278C15.7999 15.6518 17.0359 15.4078 18.1999 14.8878C18.4599 14.7718 18.7119 14.6318 18.9279 14.4398C19.2279 14.1718 19.2359 13.9598 18.9399 13.6918C18.5519 13.3398 18.0719 13.1558 17.5879 12.9798C17.4839 12.9398 17.3759 12.9118 17.2759 12.8678C17.0719 12.7758 16.9799 12.5718 17.0479 12.3678C17.1159 12.1558 17.3239 12.0238 17.5399 12.0878C18.2119 12.2958 18.8639 12.5478 19.4199 12.9998C19.7039 13.2318 19.8959 13.5198 19.9959 13.8718C19.9999 14.0038 19.9999 14.1358 19.9999 14.2678Z" fill="#161616"/>
<path d="M15.5522 3.86386C13.7802 3.18386 12.0042 2.50386 10.2322 1.82386C10.0602 1.75586 9.90816 1.76786 9.74416 1.83186C7.98416 2.51186 6.22016 3.18786 4.46016 3.86386C4.26016 3.93986 4.16016 4.08386 4.16016 4.29586V7.61586H4.16816C4.16816 8.68386 4.16816 9.75186 4.16816 10.8199C4.16816 11.1599 4.22816 11.2479 4.54816 11.3679C6.30416 12.0439 8.05616 12.7199 9.81216 13.3999C9.94016 13.4479 10.0602 13.4479 10.1882 13.3999C11.9242 12.7319 13.6642 12.0599 15.4002 11.3919C15.7762 11.2479 15.8282 11.1759 15.8282 10.7759C15.8322 8.61986 15.8322 6.46786 15.8362 4.31186C15.8402 4.09586 15.7442 3.93986 15.5522 3.86386ZM9.42416 12.3519C7.99216 11.7959 6.55616 11.2479 5.12016 10.6959C5.04416 10.6679 4.99216 10.6399 4.99616 10.5359C5.00016 8.65586 5.00016 6.77586 5.00016 4.87186C6.50816 5.45186 7.99216 6.02386 9.47616 6.59186C9.60016 6.63986 9.58016 6.71986 9.58016 6.80786C9.58016 7.98386 9.58016 9.16386 9.58016 10.3399C9.58016 10.9719 9.57616 11.6039 9.58416 12.2319C9.58416 12.3599 9.57216 12.4079 9.42416 12.3519ZM10.1602 5.84386C10.0682 5.87986 9.98416 5.89986 9.88016 5.85986C8.53616 5.33986 7.19616 4.82386 5.85216 4.30786C5.82816 4.29986 5.80816 4.28786 5.75616 4.26386C6.16416 4.10786 6.55216 3.95986 6.93616 3.81186C7.90416 3.43986 8.87216 3.06786 9.84016 2.69186C9.94816 2.64786 10.0442 2.64386 10.1562 2.68786C11.4802 3.19986 12.8082 3.70786 14.1322 4.21986C14.1602 4.23186 14.1882 4.24786 14.2402 4.27586C13.5522 4.53986 12.8922 4.79186 12.2282 5.04786C11.5402 5.31186 10.8482 5.57586 10.1602 5.84386ZM15.0042 10.4639C15.0042 10.5999 14.9722 10.6639 14.8362 10.7159C13.4122 11.2559 11.9922 11.8079 10.5682 12.3559C10.5282 12.3719 10.4842 12.3839 10.4282 12.3999C10.4242 12.3399 10.4202 12.2879 10.4202 12.2399C10.4202 10.4319 10.4202 8.61986 10.4202 6.81186C10.4202 6.72386 10.4082 6.64386 10.5282 6.59586C12.0122 6.03186 13.4922 5.45986 14.9802 4.88786C15.0202 4.95186 15.0002 5.01986 15.0002 5.07986C15.0002 6.87186 15.0002 8.66786 15.0042 10.4639Z" fill="#161616"/>
</svg>
