<svg width="340" height="471" viewBox="0 0 340 471" fill="none" xmlns="http://www.w3.org/2000/svg">
<mask id="path-1-inside-1_261_7670" fill="white">
<path d="M0 15.7589C0 7.47464 6.71573 0.758911 15 0.758911H325C333.284 0.758911 340 7.47464 340 15.7589V455.759C340 464.043 333.284 470.759 325 470.759H15C6.71572 470.759 0 464.043 0 455.759V15.7589Z"/>
</mask>
<path d="M0 15.7589C0 7.47464 6.71573 0.758911 15 0.758911H325C333.284 0.758911 340 7.47464 340 15.7589V455.759C340 464.043 333.284 470.759 325 470.759H15C6.71572 470.759 0 464.043 0 455.759V15.7589Z" fill="white"/>
<path d="M15 1.75891H325V-0.241089H15V1.75891ZM339 15.7589V455.759H341V15.7589H339ZM325 469.759H15V471.759H325V469.759ZM1 455.759V15.7589H-1V455.759H1ZM15 469.759C7.26801 469.759 1 463.491 1 455.759H-1C-1 464.595 6.16344 471.759 15 471.759V469.759ZM339 455.759C339 463.491 332.732 469.759 325 469.759V471.759C333.837 471.759 341 464.595 341 455.759H339ZM325 1.75891C332.732 1.75891 339 8.02693 339 15.7589H341C341 6.92236 333.837 -0.241089 325 -0.241089V1.75891ZM15 -0.241089C6.16344 -0.241089 -1 6.92235 -1 15.7589H1C1 8.02692 7.26801 1.75891 15 1.75891V-0.241089Z" fill="#FF5A50" mask="url(#path-1-inside-1_261_7670)"/>
</svg>
