<svg width="340" height="471" viewBox="0 0 340 471" fill="none" xmlns="http://www.w3.org/2000/svg">
<mask id="path-1-inside-1_335_3225" fill="white">
<path d="M0 15.7588C0 7.47452 6.71573 0.758789 15 0.758789H325C333.284 0.758789 340 7.47452 340 15.7588V455.759C340 464.043 333.284 470.759 325 470.759H15C6.71572 470.759 0 464.043 0 455.759V15.7588Z"/>
</mask>
<path d="M0 15.7588C0 7.47452 6.71573 0.758789 15 0.758789H325C333.284 0.758789 340 7.47452 340 15.7588V455.759C340 464.043 333.284 470.759 325 470.759H15C6.71572 470.759 0 464.043 0 455.759V15.7588Z" fill="white"/>
<path d="M15 1.75879H325V-0.241211H15V1.75879ZM339 15.7588V455.759H341V15.7588H339ZM325 469.759H15V471.759H325V469.759ZM1 455.759V15.7588H-1V455.759H1ZM15 469.759C7.26801 469.759 1 463.491 1 455.759H-1C-1 464.595 6.16344 471.759 15 471.759V469.759ZM339 455.759C339 463.491 332.732 469.759 325 469.759V471.759C333.837 471.759 341 464.595 341 455.759H339ZM325 1.75879C332.732 1.75879 339 8.0268 339 15.7588H341C341 6.92224 333.837 -0.241211 325 -0.241211V1.75879ZM15 -0.241211C6.16344 -0.241211 -1 6.92223 -1 15.7588H1C1 8.0268 7.26801 1.75879 15 1.75879V-0.241211Z" fill="#FF5A50" mask="url(#path-1-inside-1_335_3225)"/>
</svg>
