<svg width="14" height="21" viewBox="0 0 14 21" fill="none" xmlns="http://www.w3.org/2000/svg">
<path d="M8.34839 9.29989H5.0271C4.58667 9.29989 4.16428 9.14931 3.85285 8.88129C3.54142 8.61326 3.36646 8.24974 3.36646 7.8707C3.36646 7.49165 3.54142 7.12813 3.85285 6.86011C4.16428 6.59209 4.58667 6.44151 5.0271 6.44151H11.6697C12.1101 6.44151 12.5325 6.29094 12.8439 6.02291C13.1554 5.75489 13.3303 5.39137 13.3303 5.01232C13.3303 4.63328 13.1554 4.26976 12.8439 4.00174C12.5325 3.73371 12.1101 3.58314 11.6697 3.58314H8.34839V2.15395C8.34839 1.77491 8.17343 1.41139 7.862 1.14336C7.55057 0.875337 7.12818 0.724762 6.68775 0.724762C6.24732 0.724762 5.82492 0.875337 5.51349 1.14336C5.20206 1.41139 5.0271 1.77491 5.0271 2.15395V3.58314C3.70581 3.58314 2.43864 4.03486 1.50434 4.83893C0.570047 5.64301 0.045166 6.73357 0.045166 7.8707C0.045166 9.00783 0.570047 10.0984 1.50434 10.9025C2.43864 11.7065 3.70581 12.1583 5.0271 12.1583H8.34839C8.78882 12.1583 9.21121 12.3088 9.52265 12.5769C9.83408 12.8449 10.009 13.2084 10.009 13.5874C10.009 13.9665 9.83408 14.33 9.52265 14.598C9.21121 14.8661 8.78882 15.0166 8.34839 15.0166H1.70581C1.26538 15.0166 0.842989 15.1672 0.531558 15.4352C0.220126 15.7033 0.045166 16.0668 0.045166 16.4458C0.045166 16.8249 0.220126 17.1884 0.531558 17.4564C0.842989 17.7244 1.26538 17.875 1.70581 17.875H5.0271V19.3042C5.0271 19.6832 5.20206 20.0468 5.51349 20.3148C5.82492 20.5828 6.24732 20.7334 6.68775 20.7334C7.12818 20.7334 7.55057 20.5828 7.862 20.3148C8.17343 20.0468 8.34839 19.6832 8.34839 19.3042V17.875C9.66968 17.875 10.9369 17.4233 11.8712 16.6192C12.8054 15.8151 13.3303 14.7246 13.3303 13.5874C13.3303 12.4503 12.8054 11.3598 11.8712 10.5557C10.9369 9.75161 9.66968 9.29989 8.34839 9.29989Z" fill="white"/>
</svg>
