<svg width="7" height="12" viewBox="0 0 7 12" fill="none" xmlns="http://www.w3.org/2000/svg">
<path d="M6.95039 8.39297C6.73421 9.55781 5.71891 10.2984 4.27613 10.4625V11.25C4.27613 11.6641 3.92927 12 3.49984 12C3.0704 12 2.7216 11.6648 2.7216 11.25V10.4306C2.71083 10.4291 2.7013 10.4299 2.69049 10.4283C2.05435 10.3401 1.38639 10.119 0.797374 9.92373L0.529462 9.83546C0.123368 9.70312 -0.0952367 9.27656 0.0422412 8.88516C0.179719 8.49375 0.622272 8.28211 1.02742 8.41453L1.30213 8.50498C1.82654 8.67855 2.42017 8.87552 2.91519 8.94396C4.05898 9.10692 5.27272 8.92418 5.41943 8.14498C5.54544 7.47584 5.14836 7.21005 3.29338 6.72232L2.92806 6.62578C1.86152 6.3375 -0.357076 5.73984 0.0490422 3.58594C0.264003 2.43984 1.27493 1.69875 2.7216 1.53539V0.75C2.7216 0.335859 3.06967 0 3.49935 0C3.92903 0 4.27613 0.335859 4.27613 0.75V1.56914C4.28685 1.57061 4.29652 1.57019 4.30724 1.57175C4.71797 1.63107 5.187 1.7468 5.78209 1.9362C6.1904 2.06583 6.41216 2.48956 6.27784 2.88331C6.14349 3.27636 5.70242 3.48941 5.2963 3.36097C4.79303 3.20131 4.39468 3.10128 4.07795 3.05581C2.94021 2.89219 1.72501 3.075 1.57782 3.85547C1.4707 4.425 1.69319 4.73438 3.34827 5.17969L3.70265 5.27381C5.15783 5.65781 7.35845 6.23672 6.95039 8.39297Z" fill="white"/>
</svg>
