<svg width="14" height="21" viewBox="0 0 14 21" fill="none" xmlns="http://www.w3.org/2000/svg">
<path d="M8.34839 9.29998H5.0271C4.58667 9.29998 4.16428 9.1494 3.85285 8.88138C3.54142 8.61335 3.36646 8.24983 3.36646 7.87079C3.36646 7.49175 3.54142 7.12823 3.85285 6.8602C4.16428 6.59218 4.58667 6.4416 5.0271 6.4416H11.6697C12.1101 6.4416 12.5325 6.29103 12.8439 6.023C13.1554 5.75498 13.3303 5.39146 13.3303 5.01242C13.3303 4.63337 13.1554 4.26985 12.8439 4.00183C12.5325 3.7338 12.1101 3.58323 11.6697 3.58323H8.34839V2.15404C8.34839 1.775 8.17343 1.41148 7.862 1.14345C7.55057 0.875428 7.12818 0.724854 6.68775 0.724854C6.24732 0.724854 5.82492 0.875428 5.51349 1.14345C5.20206 1.41148 5.0271 1.775 5.0271 2.15404V3.58323C3.70581 3.58323 2.43864 4.03495 1.50434 4.83903C0.570047 5.6431 0.045166 6.73366 0.045166 7.87079C0.045166 9.00792 0.570047 10.0985 1.50434 10.9026C2.43864 11.7066 3.70581 12.1584 5.0271 12.1584H8.34839C8.78882 12.1584 9.21121 12.3089 9.52265 12.577C9.83408 12.845 10.009 13.2085 10.009 13.5875C10.009 13.9666 9.83408 14.3301 9.52265 14.5981C9.21121 14.8662 8.78882 15.0167 8.34839 15.0167H1.70581C1.26538 15.0167 0.842989 15.1673 0.531558 15.4353C0.220126 15.7034 0.045166 16.0669 0.045166 16.4459C0.045166 16.825 0.220126 17.1885 0.531558 17.4565C0.842989 17.7245 1.26538 17.8751 1.70581 17.8751H5.0271V19.3043C5.0271 19.6833 5.20206 20.0469 5.51349 20.3149C5.82492 20.5829 6.24732 20.7335 6.68775 20.7335C7.12818 20.7335 7.55057 20.5829 7.862 20.3149C8.17343 20.0469 8.34839 19.6833 8.34839 19.3043V17.8751C9.66968 17.8751 10.9369 17.4234 11.8712 16.6193C12.8054 15.8152 13.3303 14.7247 13.3303 13.5875C13.3303 12.4504 12.8054 11.3598 11.8712 10.5558C10.9369 9.7517 9.66968 9.29998 8.34839 9.29998Z" fill="white"/>
</svg>
