<svg width="14" height="21" viewBox="0 0 14 21" fill="none" xmlns="http://www.w3.org/2000/svg">
<path d="M8.34815 9.29973H5.02686C4.58643 9.29973 4.16404 9.14916 3.8526 8.88113C3.54117 8.61311 3.36621 8.24959 3.36621 7.87055C3.36621 7.4915 3.54117 7.12798 3.8526 6.85996C4.16404 6.59193 4.58643 6.44136 5.02686 6.44136H11.6694C12.1099 6.44136 12.5323 6.29078 12.8437 6.02276C13.1551 5.75473 13.3301 5.39122 13.3301 5.01217C13.3301 4.63313 13.1551 4.26961 12.8437 4.00158C12.5323 3.73356 12.1099 3.58298 11.6694 3.58298H8.34815V2.1538C8.34815 1.77475 8.17319 1.41123 7.86176 1.14321C7.55032 0.875184 7.12793 0.724609 6.6875 0.724609C6.24707 0.724609 5.82468 0.875184 5.51325 1.14321C5.20182 1.41123 5.02686 1.77475 5.02686 2.1538V3.58298C3.70557 3.58298 2.43839 4.03471 1.5041 4.83878C0.569803 5.64286 0.0449219 6.73341 0.0449219 7.87055C0.0449219 9.00768 0.569803 10.0982 1.5041 10.9023C2.43839 11.7064 3.70557 12.1581 5.02686 12.1581H8.34815C8.78858 12.1581 9.21097 12.3087 9.5224 12.5767C9.83383 12.8447 10.0088 13.2083 10.0088 13.5873C10.0088 13.9663 9.83383 14.3299 9.5224 14.5979C9.21097 14.8659 8.78858 15.0165 8.34815 15.0165H1.70557C1.26514 15.0165 0.842745 15.1671 0.531313 15.4351C0.219882 15.7031 0.0449219 16.0666 0.0449219 16.4457C0.0449219 16.8247 0.219882 17.1882 0.531313 17.4563C0.842745 17.7243 1.26514 17.8749 1.70557 17.8749H5.02686V19.304C5.02686 19.6831 5.20182 20.0466 5.51325 20.3146C5.82468 20.5827 6.24707 20.7332 6.6875 20.7332C7.12793 20.7332 7.55032 20.5827 7.86176 20.3146C8.17319 20.0466 8.34815 19.6831 8.34815 19.304V17.8749C9.66944 17.8749 10.9366 17.4231 11.8709 16.6191C12.8052 15.815 13.3301 14.7244 13.3301 13.5873C13.3301 12.4502 12.8052 11.3596 11.8709 10.5555C10.9366 9.75146 9.66944 9.29973 8.34815 9.29973Z" fill="white"/>
</svg>
