<svg width="14" height="21" viewBox="0 0 14 21" fill="none" xmlns="http://www.w3.org/2000/svg">
<path d="M8.34815 9.29986H5.02686C4.58643 9.29986 4.16404 9.14928 3.8526 8.88126C3.54117 8.61323 3.36621 8.24971 3.36621 7.87067C3.36621 7.49162 3.54117 7.1281 3.8526 6.86008C4.16404 6.59205 4.58643 6.44148 5.02686 6.44148H11.6694C12.1099 6.44148 12.5323 6.29091 12.8437 6.02288C13.1551 5.75486 13.3301 5.39134 13.3301 5.01229C13.3301 4.63325 13.1551 4.26973 12.8437 4.00171C12.5323 3.73368 12.1099 3.58311 11.6694 3.58311H8.34815V2.15392C8.34815 1.77487 8.17319 1.41136 7.86176 1.14333C7.55032 0.875306 7.12793 0.724731 6.6875 0.724731C6.24707 0.724731 5.82468 0.875306 5.51325 1.14333C5.20182 1.41136 5.02686 1.77487 5.02686 2.15392V3.58311C3.70557 3.58311 2.43839 4.03483 1.5041 4.8389C0.569803 5.64298 0.0449219 6.73354 0.0449219 7.87067C0.0449219 9.0078 0.569803 10.0984 1.5041 10.9024C2.43839 11.7065 3.70557 12.1582 5.02686 12.1582H8.34815C8.78858 12.1582 9.21097 12.3088 9.5224 12.5768C9.83383 12.8449 10.0088 13.2084 10.0088 13.5874C10.0088 13.9665 9.83383 14.33 9.5224 14.598C9.21097 14.866 8.78858 15.0166 8.34815 15.0166H1.70557C1.26514 15.0166 0.842745 15.1672 0.531313 15.4352C0.219882 15.7032 0.0449219 16.0667 0.0449219 16.4458C0.0449219 16.8248 0.219882 17.1884 0.531313 17.4564C0.842745 17.7244 1.26514 17.875 1.70557 17.875H5.02686V19.3042C5.02686 19.6832 5.20182 20.0467 5.51325 20.3148C5.82468 20.5828 6.24707 20.7334 6.6875 20.7334C7.12793 20.7334 7.55032 20.5828 7.86176 20.3148C8.17319 20.0467 8.34815 19.6832 8.34815 19.3042V17.875C9.66944 17.875 10.9366 17.4233 11.8709 16.6192C12.8052 15.8151 13.3301 14.7245 13.3301 13.5874C13.3301 12.4503 12.8052 11.3597 11.8709 10.5557C10.9366 9.75158 9.66944 9.29986 8.34815 9.29986Z" fill="white"/>
</svg>
