<svg width="9" height="16" viewBox="0 0 9 16" fill="none" xmlns="http://www.w3.org/2000/svg">
<path d="M8.93621 11.1906C8.65827 12.7438 7.35289 13.7312 5.49788 13.95V15C5.49788 15.5522 5.05192 16 4.49979 16C3.94766 16 3.49921 15.5531 3.49921 15V13.9075C3.48536 13.9055 3.4731 13.9065 3.4592 13.9044C2.64131 13.7868 1.7825 13.4919 1.0252 13.2316L0.680737 13.1139C0.158616 12.9375 -0.122447 12.3688 0.0543102 11.8469C0.231068 11.325 0.800064 11.0428 1.32097 11.2194L1.67417 11.34C2.34841 11.5714 3.11165 11.834 3.7481 11.9253C5.21869 12.1426 6.77921 11.8989 6.96783 10.86C7.12985 9.96778 6.61932 9.61341 4.23434 8.96309L3.76465 8.83438C2.39338 8.45 -0.459098 7.65312 0.0630543 4.78125C0.339433 3.25312 1.63919 2.265 3.49921 2.04719V1C3.49921 0.447812 3.94672 0 4.49917 0C5.05161 0 5.49788 0.447812 5.49788 1V2.09219C5.51166 2.09414 5.5241 2.09359 5.53788 2.09567C6.06597 2.17476 6.669 2.32907 7.43412 2.5816C7.95908 2.75445 8.2442 3.31942 8.07151 3.84442C7.89878 4.36848 7.33169 4.65254 6.80953 4.48129C6.16246 4.26842 5.65031 4.13504 5.24308 4.07442C3.78027 3.85625 2.21787 4.1 2.02862 5.14062C1.8909 5.9 2.17696 6.3125 4.30492 6.90625L4.76055 7.03175C6.6315 7.54375 9.46086 8.31563 8.93621 11.1906Z" fill="white"/>
</svg>
