<svg width="14" height="21" viewBox="0 0 14 21" fill="none" xmlns="http://www.w3.org/2000/svg">
<path d="M8.34839 9.29986H5.0271C4.58667 9.29986 4.16428 9.14928 3.85285 8.88126C3.54142 8.61323 3.36646 8.24971 3.36646 7.87067C3.36646 7.49162 3.54142 7.1281 3.85285 6.86008C4.16428 6.59205 4.58667 6.44148 5.0271 6.44148H11.6697C12.1101 6.44148 12.5325 6.29091 12.8439 6.02288C13.1554 5.75486 13.3303 5.39134 13.3303 5.01229C13.3303 4.63325 13.1554 4.26973 12.8439 4.00171C12.5325 3.73368 12.1101 3.58311 11.6697 3.58311H8.34839V2.15392C8.34839 1.77487 8.17343 1.41136 7.862 1.14333C7.55057 0.875306 7.12818 0.724731 6.68775 0.724731C6.24732 0.724731 5.82492 0.875306 5.51349 1.14333C5.20206 1.41136 5.0271 1.77487 5.0271 2.15392V3.58311C3.70581 3.58311 2.43864 4.03483 1.50434 4.8389C0.570047 5.64298 0.045166 6.73354 0.045166 7.87067C0.045166 9.0078 0.570047 10.0984 1.50434 10.9024C2.43864 11.7065 3.70581 12.1582 5.0271 12.1582H8.34839C8.78882 12.1582 9.21121 12.3088 9.52265 12.5768C9.83408 12.8449 10.009 13.2084 10.009 13.5874C10.009 13.9665 9.83408 14.33 9.52265 14.598C9.21121 14.866 8.78882 15.0166 8.34839 15.0166H1.70581C1.26538 15.0166 0.842989 15.1672 0.531558 15.4352C0.220126 15.7032 0.045166 16.0667 0.045166 16.4458C0.045166 16.8248 0.220126 17.1884 0.531558 17.4564C0.842989 17.7244 1.26538 17.875 1.70581 17.875H5.0271V19.3042C5.0271 19.6832 5.20206 20.0467 5.51349 20.3148C5.82492 20.5828 6.24732 20.7334 6.68775 20.7334C7.12818 20.7334 7.55057 20.5828 7.862 20.3148C8.17343 20.0467 8.34839 19.6832 8.34839 19.3042V17.875C9.66968 17.875 10.9369 17.4233 11.8712 16.6192C12.8054 15.8151 13.3303 14.7245 13.3303 13.5874C13.3303 12.4503 12.8054 11.3597 11.8712 10.5557C10.9369 9.75158 9.66968 9.29986 8.34839 9.29986Z" fill="white"/>
</svg>
