<svg width="6" height="4" viewBox="0 0 6 4" fill="none" xmlns="http://www.w3.org/2000/svg">
<path d="M5.75784e-06 3.66482C-0.00024792 3.62096 0.00815872 3.57749 0.0247431 3.53688C0.0413275 3.49628 0.065764 3.45935 0.0966506 3.42821L2.76271 0.762151C2.79369 0.730916 2.83055 0.706123 2.87116 0.689204C2.91177 0.672285 2.95533 0.663574 2.99932 0.663574C3.04332 0.663574 3.08687 0.672285 3.12748 0.689204C3.16809 0.706123 3.20495 0.730916 3.23593 0.762151L5.90199 3.42821C5.96475 3.49096 6 3.57608 6 3.66482C6 3.75357 5.96475 3.83868 5.90199 3.90143C5.83924 3.96419 5.75413 3.99944 5.66538 3.99944C5.57663 3.99944 5.49152 3.96419 5.42877 3.90143L2.99932 1.46866L0.569876 3.90143C0.538895 3.93267 0.502037 3.95746 0.461426 3.97438C0.420816 3.9913 0.377257 4.00001 0.333263 4.00001C0.289269 4.00001 0.24571 3.9913 0.2051 3.97438C0.16449 3.95746 0.127631 3.93267 0.0966506 3.90143C0.065764 3.87029 0.0413275 3.83337 0.0247431 3.79276C0.00815872 3.75216 -0.000247919 3.70868 5.75784e-06 3.66482Z" fill="#FF5A50"/>
</svg>
