<svg width="160" height="16" viewBox="0 0 160 16" fill="none" xmlns="http://www.w3.org/2000/svg">
<path d="M0 8C0 7.44772 0.447715 7 1 7H159C159.552 7 160 7.44772 160 8C160 8.55228 159.552 9 159 9H1C0.447719 9 0 8.55228 0 8Z" fill="#D9D9D9"/>
<path d="M0 8C0 7.44772 0.447715 7 1 7H79C79.5523 7 80 7.44772 80 8C80 8.55228 79.5523 9 79 9H0.999999C0.447714 9 0 8.55228 0 8Z" fill="#FF5A50"/>
<g filter="url(#filter0_dd_261_4466)">
<circle cx="80" cy="8" r="4" fill="#FF5A50"/>
<circle cx="80" cy="8" r="3.75" stroke="white" stroke-width="0.5"/>
</g>
<defs>
<filter id="filter0_dd_261_4466" x="72" y="0" width="16" height="16" filterUnits="userSpaceOnUse" color-interpolation-filters="sRGB">
<feFlood flood-opacity="0" result="BackgroundImageFix"/>
<feColorMatrix in="SourceAlpha" type="matrix" values="0 0 0 0 0 0 0 0 0 0 0 0 0 0 0 0 0 0 127 0" result="hardAlpha"/>
<feOffset/>
<feGaussianBlur stdDeviation="0.5"/>
<feColorMatrix type="matrix" values="0 0 0 0 0 0 0 0 0 0 0 0 0 0 0 0 0 0 0.1 0"/>
<feBlend mode="normal" in2="BackgroundImageFix" result="effect1_dropShadow_261_4466"/>
<feColorMatrix in="SourceAlpha" type="matrix" values="0 0 0 0 0 0 0 0 0 0 0 0 0 0 0 0 0 0 127 0" result="hardAlpha"/>
<feOffset/>
<feGaussianBlur stdDeviation="2"/>
<feColorMatrix type="matrix" values="0 0 0 0 0 0 0 0 0 0 0 0 0 0 0 0 0 0 0.1 0"/>
<feBlend mode="normal" in2="effect1_dropShadow_261_4466" result="effect2_dropShadow_261_4466"/>
<feBlend mode="normal" in="SourceGraphic" in2="effect2_dropShadow_261_4466" result="shape"/>
</filter>
</defs>
</svg>
